<?xml version="1.0" encoding="UTF-8" standalone="no"?>
<!-- Created with Inkscape (http://www.inkscape.org/) -->

<svg
   xmlns:dc="http://purl.org/dc/elements/1.1/"
   xmlns:cc="http://creativecommons.org/ns#"
   xmlns:rdf="http://www.w3.org/1999/02/22-rdf-syntax-ns#"
   xmlns:svg="http://www.w3.org/2000/svg"
   xmlns="http://www.w3.org/2000/svg"
   xmlns:sodipodi="http://sodipodi.sourceforge.net/DTD/sodipodi-0.dtd"
   xmlns:inkscape="http://www.inkscape.org/namespaces/inkscape"
   width="210mm"
   height="297mm"
   viewBox="0 0 210 297"
   version="1.1"
   id="svg8"
   inkscape:version="0.92.2 (5c3e80d, 2017-08-06)">
  <defs
     id="defs2" />
  <sodipodi:namedview
     id="base"
     pagecolor="#ffffff"
     bordercolor="#666666"
     borderopacity="1.0"
     inkscape:pageopacity="0.0"
     inkscape:pageshadow="2"
     inkscape:zoom="0.49497475"
     inkscape:cx="-457.08186"
     inkscape:cy="924.89602"
     inkscape:document-units="mm"
     inkscape:current-layer="layer1"
     showgrid="false"
     inkscape:window-width="1920"
     inkscape:window-height="1017"
     inkscape:window-x="-8"
     inkscape:window-y="-8"
     inkscape:window-maximized="1" />
  <metadata
     id="metadata5">
    <rdf:RDF>
      <cc:Work
         rdf:about="">
        <dc:format>image/svg+xml</dc:format>
        <dc:type
           rdf:resource="http://purl.org/dc/dcmitype/StillImage" />
        <dc:title></dc:title>
      </cc:Work>
    </rdf:RDF>
  </metadata>
  <g
     inkscape:label="Capa 1"
     inkscape:groupmode="layer"
     id="layer1">
    <g
       id="g873"
       transform="matrix(0.43334781,-0.27770049,0.36145105,0.56403942,7.2873325,71.018468)">
      <g
         style="fill:#ff6600;stroke:#ffffff"
         transform="matrix(0.36571838,0.3659013,-0.4347964,0.30776895,86.18362,55.877772)"
         id="g56">
        <path
           style="fill:#ff6600;stroke:#ffffff;stroke-width:0.26458332px;stroke-linecap:butt;stroke-linejoin:miter;stroke-opacity:1"
           d="m 116.67218,70.725901 c -1.05771,-0.15551 -2.11542,-0.31101 -3.17312,-0.46652 -1.05771,-0.1555 -2.11542,-0.31101 -3.17313,-0.46651 -0.26442,-0.0389 -0.52885,-0.0778 -0.79328,-0.11663 -0.0595,-0.009 -0.35345,-0.0725 -0.39664,-0.0583 -0.0598,0.0197 -0.0918,0.0931 -0.15165,0.11278 -0.0846,0.0278 -0.1798,-0.0667 -0.26443,-0.0389 -0.0598,0.0197 -0.0918,0.0931 -0.15165,0.11277 -0.15193,0.0499 -0.26532,-0.15597 -0.54829,0.0545 -0.0358,0.0266 0.0229,0.1183 -0.0194,0.13221 -0.0846,0.0278 -0.17629,-0.0259 -0.26443,-0.0389 -0.0441,-0.006 -0.0965,-0.046 -0.13221,-0.0194 -0.0357,0.0266 0.0163,0.10563 -0.0194,0.13222 -0.0357,0.0266 -0.0899,-0.0333 -0.13222,-0.0194 -0.0598,0.0197 -0.0918,0.0931 -0.15165,0.11277 -0.0423,0.0139 -0.0899,-0.0333 -0.13221,-0.0194 -0.0598,0.0197 -0.0918,0.0931 -0.15165,0.11278 -0.0749,0.0247 -0.33343,-0.0882 -0.39664,-0.0583 -0.11389,0.0539 -0.18943,0.17165 -0.30331,0.22554 -0.0216,0.0103 -0.35322,-0.0519 -0.39664,-0.0583 -0.0596,-0.009 -0.35345,-0.0725 -0.39664,-0.0583 -0.0598,0.0197 -0.0918,0.0931 -0.15165,0.11278 -0.0846,0.0278 -0.1798,-0.0667 -0.26443,-0.0389 -0.0598,0.0197 -0.1011,0.0752 -0.15165,0.11278 -0.0506,0.0376 -0.11558,0.0611 -0.15165,0.11278 -0.0255,0.0365 0.0163,0.10563 -0.0194,0.13221 -0.0357,0.0266 -0.0965,-0.046 -0.13221,-0.0194 -0.31378,0.23333 0.41959,0.0508 -0.17109,0.24498 -0.0423,0.0139 -0.0965,-0.046 -0.13222,-0.0194 -0.0358,0.0266 0.006,0.0957 -0.0194,0.13222 -0.0721,0.10329 -0.23116,0.12225 -0.3033,0.22555 -0.0255,0.0365 0.0163,0.10563 -0.0194,0.13221 -0.0799,0.0594 -0.20394,0.0339 -0.28386,0.0933 -0.0357,0.0266 0.0163,0.10562 -0.0194,0.13221 -0.031,0.023 -0.34037,-0.0768 -0.39664,-0.0583 -0.0598,0.0197 -0.0918,0.0931 -0.15166,0.11278 -0.0423,0.0139 -0.0884,-0.0272 -0.13221,-0.0194 -0.0981,0.0174 -0.18579,0.0759 -0.28386,0.0933 -0.0439,0.008 -0.0965,-0.046 -0.13222,-0.0194 -0.0358,0.0266 0.0229,0.1183 -0.0194,0.13222 -0.0849,0.0279 -0.70482,-0.14567 -0.79328,-0.11663 -0.0598,0.0197 -0.0918,0.0931 -0.15165,0.11277 -0.0318,0.0105 -0.49743,-0.0731 -0.52885,-0.0777 -0.3085,-0.0454 -0.617,-0.0907 -0.9255,-0.13607 -0.220353,-0.0324 -0.44071,-0.0648 -0.661065,-0.0972 -0.04407,-0.006 -0.08814,-0.013 -0.132215,-0.0194 -0.04407,-0.006 -0.09569,0.006 -0.132212,-0.0194 -0.05164,-0.0361 -0.06113,-0.11558 -0.112776,-0.15164 -0.03652,-0.0255 -0.105633,0.0163 -0.132215,-0.0194 -0.02658,-0.0358 0.04602,-0.0965 0.01944,-0.13222 -0.05944,-0.0799 -0.156078,-0.12619 -0.244989,-0.17109 -0.03976,-0.0201 -0.105632,0.0163 -0.132211,-0.0194 -0.02658,-0.0357 0.04602,-0.0965 0.01944,-0.13222 -0.02658,-0.0358 -0.105632,0.0163 -0.132214,-0.0194 -0.02658,-0.0358 0.04602,-0.0965 0.01944,-0.13221 -0.02658,-0.0357 -0.105632,0.0163 -0.132215,-0.0194 -0.05944,-0.0799 -0.0339,-0.20394 -0.09334,-0.28386 -0.05944,-0.0799 -0.174843,-0.1004 -0.244989,-0.1711 -0.133087,-0.13417 -0.197998,-0.32836 -0.338325,-0.45495 -0.07395,-0.0668 -0.156081,-0.12618 -0.244992,-0.17108 -0.07951,-0.0402 -0.211262,0.0326 -0.264425,-0.0389 -0.137357,-0.18471 -0.0185,-0.3045 -0.206111,-0.43552 -0.07304,-0.051 -0.211267,0.0326 -0.264427,-0.0389 -0.02658,-0.0358 0.03335,-0.0899 0.01944,-0.13222 -0.103188,-0.31381 -0.07602,-0.0531 -0.244992,-0.17108 -0.05165,-0.0361 -0.06113,-0.11558 -0.112774,-0.15165 -0.07228,-0.0505 -0.31015,-0.0147 -0.39664,-0.0583 -0.0889,-0.0449 -0.171029,-0.10439 -0.244988,-0.1711 -0.04679,-0.0422 -0.05453,-0.12765 -0.112777,-0.15165 -0.123555,-0.0509 -0.264427,-0.0389 -0.396641,-0.0583 -0.04407,-0.006 -0.09246,6.6e-4 -0.132214,-0.0194 -0.0889,-0.0449 -0.156082,-0.12618 -0.244988,-0.17109 -0.07952,-0.0402 -0.191378,0.0121 -0.264426,-0.0389 -0.103303,-0.0721 -0.11309,-0.2465 -0.22555,-0.3033 -0.06954,-0.0351 -0.660135,-0.0971 -0.793282,-0.11663 -0.04407,-0.006 -0.08814,-0.013 -0.132214,-0.0194 -0.04407,-0.006 -0.09569,0.006 -0.132212,-0.0194 -0.05165,-0.0361 -0.066,-0.10946 -0.112777,-0.15165 -0.07395,-0.0668 -0.163323,-0.11407 -0.244988,-0.17109 -0.08167,-0.057 -0.156082,-0.12618 -0.244988,-0.17109 -0.03976,-0.0201 -0.0957,0.006 -0.132215,-0.0194 -0.05165,-0.0361 -0.06113,-0.11559 -0.112775,-0.15166 -0.03728,-0.026 -0.337097,-0.0496 -0.396641,-0.0583 -0.264426,-0.0389 -0.528853,-0.0778 -0.793279,-0.11662 -0.08814,-0.013 -0.176286,-0.0259 -0.264429,-0.0389 -0.04407,-0.006 -0.09245,6.6e-4 -0.132212,-0.0194 -0.455823,-0.23024 -0.08488,-0.0766 -0.357764,-0.32274 -0.07395,-0.0668 -0.171029,-0.10439 -0.244989,-0.17109 -0.04677,-0.0422 -0.06113,-0.11558 -0.112776,-0.15165 -0.07304,-0.051 -0.211265,0.0326 -0.264426,-0.0389 -0.05944,-0.0799 -0.0339,-0.20394 -0.09334,-0.28386 -0.05316,-0.0715 -0.211266,0.0326 -0.264426,-0.03888 -0.02658,-0.03575 0.04602,-0.09646 0.01944,-0.132208 -0.02701,-0.03632 -0.533277,-0.04768 -0.528856,-0.07775 0.0065,-0.04413 0.125728,0.06356 0.132215,0.01944 0.0092,-0.06233 -0.06113,-0.115581 -0.112776,-0.151657 -0.04375,-0.03059 -0.762675,-0.112129 -0.793278,-0.116629 -0.04407,-0.0065 -0.0957,0.006 -0.132215,-0.01944 -0.05165,-0.0361 -0.066,-0.109464 -0.112777,-0.151647 -0.07396,-0.06677 -0.156081,-0.126185 -0.244989,-0.171085 -0.03976,-0.0201 -0.09914,0.01039 -0.132214,-0.01944 -0.0019,-0.0013 -0.547178,-0.707476 -0.563876,-0.758265 -0.02782,-0.08465 0.05445,-0.176709 0.03888,-0.264427 -0.178426,-1.004608 0.0075,0.214054 -0.206113,-0.435515 -0.02783,-0.08463 0.09204,-0.192937 0.03888,-0.264428 -0.02658,-0.03575 -0.105633,0.01631 -0.132214,-0.01944 -0.02658,-0.03575 0.01296,-0.08814 0.01944,-0.132212 0.0065,-0.04408 0.01296,-0.08814 0.01944,-0.132215 0.09071,-0.616995 0.181423,-1.233991 0.272135,-1.850989 0.09719,-0.661068 0.194381,-1.322134 0.291572,-1.983202 0.0324,-0.220354 0.06479,-0.440712 0.09719,-0.661067 0.0065,-0.04407 0.01296,-0.08814 0.01944,-0.132214 0.0065,-0.04407 -0.0061,-0.09569 0.01944,-0.132212 0.07214,-0.103296 0.231167,-0.122255 0.303305,-0.225552 0.0255,-0.03652 -0.0061,-0.09569 0.01944,-0.132213 0.03607,-0.05164 0.109454,-0.066 0.15165,-0.112776 0.06672,-0.07396 0.104377,-0.17103 0.171091,-0.244988 0.04219,-0.04678 0.115583,-0.06113 0.151653,-0.112776 0.0255,-0.03652 -0.0061,-0.09569 0.01944,-0.132212 0.160698,-0.230111 0.517646,-0.14943 0.719381,-0.29945 0.03575,-0.02658 -0.01631,-0.105633 0.01944,-0.132214 0.03575,-0.02658 0.08835,0.02722 0.132212,0.01944 1.004611,-0.178427 -0.214051,0.0075 0.435517,-0.206112 0.04231,-0.01391 0.09647,0.04602 0.132215,0.01944 0.03575,-0.02658 -0.01631,-0.105632 0.01944,-0.132214 0.03575,-0.02658 0.08836,0.02722 0.132212,0.01944 0.09808,-0.01742 0.189245,-0.06222 0.283867,-0.09334 0.09462,-0.03111 0.185794,-0.07592 0.283864,-0.09333 0.04386,-0.0078 0.138693,-0.02463 0.132215,0.01944 -0.0065,0.04407 -0.176286,-0.02592 -0.132215,-0.01944 0.132215,0.01944 0.264427,0.03888 0.396641,0.05831 0.04407,0.0065 0.09647,0.04602 0.132212,0.01944 0.03575,-0.02658 -0.01631,-0.105632 0.01944,-0.132214 9.01e-4,-6.7e-4 0.392062,0.05875 0.396641,0.05831 0.09912,-0.0098 0.184747,-0.08349 0.283867,-0.09333 0.08865,-0.0088 0.183897,0.07699 0.264426,0.03888 0.09002,-0.04261 0.08106,-0.20238 0.171089,-0.24499 0.08053,-0.03811 0.176286,0.02592 0.264428,0.03888 0.308498,0.04536 0.616996,0.09071 0.925494,0.136067 0.08814,0.01296 0.176286,0.02592 0.264427,0.03888 0.04407,0.0065 0.09569,-0.0061 0.132213,0.01944 0.05165,0.03607 0.06113,0.115583 0.112777,0.151653 0.03652,0.0255 0.09914,-0.0104 0.132212,0.01944 0.09355,0.0844 0.122255,0.231165 0.225553,0.303303 0.601873,0.08849 0.01668,-0.06122 0.3772,0.190528 0.07304,0.05101 0.211265,-0.03262 0.264428,0.03888 0.02658,0.03575 -0.04602,0.09647 -0.01944,0.132212 0.02658,0.03575 0.09569,-0.0061 0.132212,0.01944 0.05165,0.03607 0.06113,0.115583 0.112776,0.151653 0.07827,0.05467 0.427651,0.02664 0.528853,0.07775 0.08891,0.04491 0.156081,0.126182 0.24499,0.171091 0.03976,0.02008 0.09569,-0.0061 0.132212,0.01944 0.05165,0.03607 0.06113,0.115581 0.112777,0.15165 0.03728,0.02605 0.337096,0.04956 0.396641,0.05831 0.352569,0.05183 0.705138,0.10367 1.057708,0.155505 2.203558,0.323969 4.407116,0.647938 6.610676,0.971908 0.52885,0.07775 1.0577,0.155505 1.58656,0.233258 0.0881,0.01296 0.17628,0.02592 0.26443,0.03888 0.0441,0.0065 0.13869,-0.02463 0.13221,0.01944 -0.007,0.04407 -0.17628,-0.02592 -0.13221,-0.01944 0.10808,0.01589 0.86176,0.103885 0.92549,0.136067 0.0562,0.0284 0.0611,0.115584 0.11278,0.151653 0.073,0.05101 0.21126,-0.03262 0.26442,0.03888 0.0266,0.03575 -0.046,0.09647 -0.0194,0.132214 0.0564,0.07583 0.34026,-0.01751 0.39664,0.05831 0.0266,0.03575 -0.013,0.08814 -0.0194,0.132212 0.0881,0.01296 0.18491,-0.0013 0.26443,0.03888 0.39246,0.198234 -0.057,0.08166 0.0933,0.283868 0.0266,0.03575 0.10563,-0.01631 0.13221,0.01944 0.0532,0.07149 -0.092,0.192936 -0.0389,0.264427 0.0266,0.03575 0.10563,-0.01631 0.13222,0.01944 0.0266,0.03575 -0.0333,0.08989 -0.0194,0.132212 0.0197,0.05985 0.0752,0.101101 0.11277,0.151653 0.0376,0.05054 0.066,0.109454 0.11278,0.151652 0.074,0.06672 0.18555,0.09116 0.24499,0.171088 0.0266,0.03575 -0.0333,0.08989 -0.0194,0.132214 0.0197,0.05985 0.0858,0.09471 0.11277,0.151653 0.0426,0.09002 0.0339,0.203936 0.0933,0.283865 0.0266,0.03575 0.10563,-0.01631 0.13221,0.01944 0.0266,0.03575 -0.046,0.09647 -0.0194,0.132212 0.0266,0.03575 0.10564,-0.01631 0.13221,0.01944 0.0266,0.03575 -0.046,0.09647 -0.0194,0.132214 0.0266,0.03575 0.10564,-0.01631 0.13222,0.01944 0.0532,0.07149 -0.092,0.192937 -0.0389,0.264426 0.0266,0.03575 0.10563,-0.01631 0.13221,0.01944 0.0266,0.03575 -0.046,0.09647 -0.0194,0.132214 0.0266,0.03575 0.0881,0.01296 0.13222,0.01944 0.0311,0.09462 0.0759,0.185795 0.0933,0.283865 0.008,0.04386 -0.046,0.09647 -0.0194,0.132214 0.0266,0.03575 0.10563,-0.01631 0.13221,0.01944 0.0532,0.07149 -0.092,0.192939 -0.0389,0.264427 0.0266,0.03575 0.0957,-0.0061 0.13221,0.01944 0.0516,0.03607 0.0752,0.101101 0.11278,0.151653 0.0376,0.05055 0.0931,0.09181 0.11277,0.15165 0.0139,0.04231 -0.013,0.08814 -0.0194,0.132214 -0.0518,0.35257 -0.0376,-0.05054 0.11278,0.151653 0.0266,0.03575 -0.046,0.09647 -0.0194,0.132211 0.23333,0.313773 0.0508,-0.419598 0.24499,0.171091 0.0139,0.04231 -0.046,0.09647 -0.0194,0.132212 0.0266,0.03575 0.0957,-0.0061 0.13221,0.01944 0.0516,0.03607 0.0752,0.101102 0.11277,0.151653 0.0376,0.05054 0.0931,0.09181 0.11278,0.151653 -0.0518,0.352569 -0.0376,-0.05056 0.11278,0.15165 0.0266,0.03575 -0.046,0.09647 -0.0194,0.132214 0.0594,0.07993 0.18555,0.09116 0.24498,0.171091 0.0266,0.03575 -0.046,0.09647 -0.0194,0.132211 0.0532,0.07149 0.19139,-0.01213 0.26443,0.03888 0.50979,0.356019 -0.14,-0.02988 0.0933,0.283864 0.0532,0.07149 0.21127,-0.03261 0.26443,0.03888 0.0266,0.03575 -0.046,0.09647 -0.0194,0.132214 0.0266,0.03575 0.0957,-0.0061 0.13221,0.01944 0.0516,0.03607 0.0611,0.115583 0.11278,0.151652 0.0365,0.0255 0.10563,-0.01631 0.13221,0.01944 0.0266,0.03575 -0.046,0.09647 -0.0194,0.132209 0.0532,0.0715 0.19138,-0.0121 0.26443,0.0389 0.37633,0.26281 -0.22964,0.0424 0.20611,0.43552 0.0662,0.0597 0.19139,-0.0121 0.26443,0.0389 0.0365,0.0255 -0.046,0.0965 -0.0194,0.13222 0.44013,0.59185 0.0755,-0.0202 0.3772,0.19052 0.0516,0.0361 0.0611,0.11559 0.11277,0.15166 0.073,0.051 0.19139,-0.0121 0.26443,0.0389 0.0516,0.0361 0.066,0.10946 0.11278,0.15165 0.074,0.0667 0.17103,0.10437 0.24498,0.17109 0.0935,0.0844 0.12226,0.23117 0.22556,0.30331 0.0365,0.0255 0.0957,-0.006 0.13221,0.0194 0.0516,0.0361 0.0611,0.11558 0.11278,0.15165 0.11548,0.0806 0.278,0.0905 0.3772,0.19053 0.0701,0.0708 0.0339,0.20393 0.0933,0.28386 0.0266,0.0357 0.0991,-0.0104 0.13221,0.0194 0.0935,0.0844 0.132,0.21891 0.22555,0.3033 0.0662,0.0597 0.21127,-0.0326 0.26443,0.0389 0.0266,0.0357 -0.046,0.0965 -0.0194,0.13222 0.0532,0.0715 0.21127,-0.0326 0.26443,0.0389 0.0594,0.0799 0.0339,0.20394 0.0933,0.28386 0.0564,0.0758 0.34025,-0.0175 0.39664,0.0583 0.0266,0.0357 -0.046,0.0965 -0.0194,0.13222 0.0266,0.0357 0.0957,-0.006 0.13222,0.0194 0.0516,0.0361 0.0611,0.11558 0.11277,0.15165 0.0365,0.0255 0.0957,-0.006 0.13221,0.0194 0.0516,0.0361 0.0611,0.11558 0.11278,0.15165 0.073,0.0511 0.21127,-0.0326 0.26443,0.0389 0.0266,0.0357 -0.046,0.0965 -0.0194,0.13222 0.0266,0.0357 0.10563,-0.0163 0.13221,0.0194 0.0266,0.0358 -0.046,0.0965 -0.0194,0.13221 0.0266,0.0357 0.0957,-0.006 0.13221,0.0194 0.0516,0.0361 0.0611,0.11559 0.11278,0.15165 0.0365,0.0255 0.10563,-0.0163 0.13221,0.0194 0.0266,0.0357 -0.013,0.0881 -0.0194,0.13221 -0.0324,0.22036 -0.0648,0.44071 -0.0972,0.66107 -0.013,0.0882 -0.0259,0.17629 -0.0389,0.26443 -0.007,0.044 0.0217,0.14919 -0.0194,0.13221 -0.18418,-0.0759 -0.32665,-0.22812 -0.48997,-0.34218 z"
           id="path21"
           inkscape:connector-curvature="0" />
        <path
           style="fill:#ff6600;stroke:#ffffff;stroke-width:0.26458332px;stroke-linecap:butt;stroke-linejoin:miter;stroke-opacity:1"
           d="m 102.47607,66.526065 c 0.44845,-0.15984 0.87785,-0.133636 1.33635,-0.133636 0.0891,0 0.17818,0 0.26727,0 0.0446,0 0.0904,-0.0108 0.13363,0 0.13666,0.03416 0.26425,0.09947 0.40091,0.133636 0.0432,0.0108 0.0891,0 0.13363,0 0.13364,0 0.26727,0 0.4009,0 0.0891,0 0.18084,-0.02162 0.26727,0 0.0966,0.02416 0.1696,0.114099 0.26727,0.133633 0.26208,0.05242 0.53973,-0.05241 0.80181,0 0.0977,0.01953 0.17064,0.109477 0.26727,0.133636 0.1179,0.02948 0.42006,-0.03816 0.53454,0 0.18899,0.063 0.35636,0.178178 0.53454,0.267269 0.0891,0.04454 0.17064,0.109477 0.26727,0.133636 0.12964,0.03241 0.27413,-0.04226 0.4009,0 0.0945,0.0315 0.17278,0.102137 0.26727,0.133633 0.0423,0.01408 0.0938,-0.01992 0.13364,0 0.11269,0.05634 0.15458,0.210926 0.26727,0.267271 0.0721,0.03602 0.61816,-0.03334 0.66817,0 0.10483,0.06989 0.15458,0.210923 0.26727,0.267272 0.0209,0.0104 0.63081,0 0.66817,0 0.0445,0 0.10214,-0.0315 0.13364,0 0.0315,0.0315 -0.0315,0.10213 0,0.13363 0.0315,0.0315 0.0891,0 0.13363,0 0.22273,0 0.44545,0 0.66818,0 0.0686,0 0.50147,-0.022 0.53454,0 0.10483,0.0699 0.16243,0.19738 0.26727,0.26727 0.0549,0.0366 0.46167,-0.0364 0.53453,0 0.0564,0.0282 0.0773,0.10546 0.13364,0.13363 0.0398,0.0199 0.10214,-0.0315 0.13363,0 0.0315,0.0315 -0.0315,0.10214 0,0.13364 0.063,0.063 0.18759,-0.0398 0.26728,0 0.0563,0.0282 0.0739,0.11371 0.13363,0.13364 0.0845,0.0282 0.18759,-0.0399 0.26727,0 0.0398,0.0199 -0.0315,0.10213 0,0.13363 0.004,0.004 0.36849,0 0.4009,0"
           id="path25"
           inkscape:connector-curvature="0" />
        <path
           style="fill:#ff6600;stroke:#ffffff;stroke-width:0.26458332px;stroke-linecap:butt;stroke-linejoin:miter;stroke-opacity:1"
           d="m 108.30196,66.984061 c -0.25689,0.10483 -0.53973,-0.05242 -0.80181,0 -0.13812,0.0276 -0.26424,0.0995 -0.4009,0.13363 -0.0432,0.0108 -0.0938,-0.0199 -0.13363,0 -0.0563,0.0282 -0.0773,0.10546 -0.13364,0.13364 -0.0797,0.0398 -0.18758,-0.0398 -0.26727,0 -0.0563,0.0282 -0.0773,0.10546 -0.13363,0.13363 -0.0709,0.0354 -0.57726,-0.0303 -0.66818,0 -0.11952,0.0398 -0.15457,0.21092 -0.26727,0.26727 -0.0398,0.0199 -0.10213,-0.0315 -0.13363,0 -0.0315,0.0315 0.0315,0.10214 0,0.13364 -0.0286,0.0286 -0.46086,-0.0246 -0.53454,0 -0.0945,0.0315 -0.17278,0.10213 -0.26727,0.13363 -0.0845,0.0282 -0.18275,-0.0282 -0.26727,0 -0.0945,0.0315 -0.17278,0.10214 -0.26727,0.13364 -0.0423,0.0141 -0.0938,-0.0199 -0.13363,0 -0.0564,0.0282 -0.0773,0.10546 -0.13364,0.13363 -0.0797,0.0398 -0.18275,-0.0282 -0.26727,0 -0.0945,0.0315 -0.17063,0.10948 -0.26727,0.13363 -0.0864,0.0216 -0.17818,0 -0.26727,0 -0.26727,0 -0.53453,0 -0.80181,0 -0.0445,0 -0.10213,-0.0315 -0.13363,0 -0.0315,0.0315 0.0315,0.10214 0,0.13364 -0.0315,0.0315 -0.0891,0 -0.13363,0 -0.0446,0 -0.0891,0 -0.13364,0 -0.53454,0 -1.06908,0 -1.60362,0 -0.31181,0 -0.623624,0 -0.935438,0 -0.08909,0 -0.182753,0.0282 -0.267272,0 -0.05976,-0.0199 -0.07729,-0.10546 -0.133633,-0.13364 -0.03984,-0.0199 -0.102137,0.0315 -0.133636,0 -0.0315,-0.0315 0.0315,-0.10213 0,-0.13363 -0.0315,-0.0315 -0.102137,0.0315 -0.133635,0 -0.063,-0.063 0.03984,-0.18759 0,-0.26727 -0.08018,-0.16036 -0.320723,-0.24054 -0.400902,-0.40091 -0.01992,-0.0398 0,-0.0891 0,-0.13363 0,-0.0445 0,-0.0891 0,-0.13363 0,-0.26727 0,-0.534542 0,-0.801813 0,-0.267269 0,-0.534538 0,-0.801807 0,-0.06018 -0.02035,-0.360235 0,-0.400904 0.147735,-0.295474 0.08294,-0.04147 0.267269,-0.133636 0.05635,-0.02817 0.07729,-0.105463 0.133633,-0.133636 0.03984,-0.01992 0.09138,0.01408 0.133635,0 0.09449,-0.0315 0.172776,-0.102134 0.267269,-0.133633 0.0754,-0.02514 0.313092,0 0.400905,0 0.267269,0 0.53454,0 0.801805,0 0.0324,0 0.39661,0.0043 0.40091,0 0.0315,-0.0315 0,-0.08909 0,-0.133636 0,-0.04454 0,-0.08909 0,-0.133633 0,-0.579085 0,-1.158168 0,-1.737254 0,-0.313396 -0.0315,0.063 0.13363,-0.267269 0.0199,-0.03984 -0.0445,-0.133633 0,-0.133633 0.0445,0 -0.0445,0.133633 0,0.133633 0.0415,0 0.33157,-0.366236 0.40091,-0.400904 0.0398,-0.01992 0.0938,0.01992 0.13363,0 0.0564,-0.02817 0.0812,-0.09869 0.13364,-0.133634 0.0829,-0.05525 0.18439,-0.07838 0.26727,-0.133635 0.0524,-0.03494 0.0773,-0.105463 0.13363,-0.133636 0.0398,-0.01992 0.0914,0.01408 0.13364,0 0.0945,-0.0315 0.17277,-0.102134 0.26726,-0.133633 0.0839,-0.02796 0.42696,0 0.53454,0 0.44545,0 0.8909,0 1.33635,0 0.26727,0 0.53454,0 0.80181,0 0.0445,0 0.0891,0 0.13364,0 0.0445,0 0.0938,-0.01992 0.13363,0 0.0553,0.02765 0.36314,0.34426 0.4009,0.400904 0.0553,0.08288 0.0632,0.196837 0.13364,0.267269 0.0315,0.0315 0.10214,-0.0315 0.13363,0 0.0315,0.0315 -0.0199,0.09379 0,0.133636 0.0282,0.05634 0.10547,0.07729 0.13364,0.133633 0.0199,0.03984 -0.0199,0.09379 0,0.133636 0.27808,0.556154 -0.009,-0.142862 0.26727,0.133633 0.0315,0.0315 -0.0199,0.0938 0,0.133636 0.0282,0.05635 0.10546,0.07729 0.13363,0.133636 0.0199,0.03984 -0.0199,0.09379 0,0.133633 0.0282,0.05635 0.0891,0.08909 0.13364,0.133635 0.0445,0.04455 0.0773,0.105463 0.13363,0.133636 0.0398,0.01992 0.0938,-0.01992 0.13364,0 0.11269,0.05634 0.15458,0.210923 0.26727,0.267269 0.0398,0.01992 0.10213,-0.0315 0.13363,0 0.0315,0.0315 -0.0315,0.102137 0,0.133633 0.0315,0.0315 0.10214,-0.0315 0.13364,0 0.0315,0.0315 -0.0199,0.0938 0,0.133636 0.0282,0.05635 0.10546,0.07729 0.13363,0.133636 0.0199,0.03984 -0.0199,0.09379 0,0.133633 0.0282,0.05635 0.10546,0.07729 0.13363,0.133635 0.0199,0.03984 -0.0315,0.102138 0,0.133636 0.2765,0.276495 -0.0108,-0.422521 0.26728,0.133633 0.0362,0.0725 -0.0366,0.497975 0,0.534541 0.0315,0.0315 0.10213,-0.0315 0.13363,0 0.0315,0.0315 -0.0315,0.102137 0,0.133633 0.0315,0.0315 0.10214,-0.0315 0.13363,0 0.063,0.063 -0.063,0.204274 0,0.267271 0.2765,0.276495 -0.0108,-0.422521 0.26727,0.133633 0.0199,0.03984 -0.0199,0.09379 0,0.133636 0.0802,0.160361 0.32073,0.240543 0.40091,0.400905 0.0199,0.03984 -0.0315,0.102137 0,0.133633 0.0315,0.0315 0.10214,-0.0315 0.13363,0 0.006,0.0061 0,0.605163 0,0.668173 -0.17818,-0.0445 -0.35636,-0.0891 -0.53454,-0.13363 z"
           id="path29"
           inkscape:connector-curvature="0" />
      </g>
      <path
         inkscape:connector-curvature="0"
         id="path58"
         d="m 67.572052,116.68522 c 5.38505,-0.0263 14.141981,-0.0262 19.459841,1e-5 5.31787,0.0262 0.91191,0.0477 -9.791,0.0477 -10.702921,0 -15.053891,-0.0215 -9.668841,-0.0477 z m 25.479961,-4.85014 c 0,-0.0979 -0.13177,-0.17798 -0.29281,-0.17798 -0.16106,0 -0.7029,-0.40047 -1.2041,-0.88993 -0.5012,-0.48946 -1.00147,-0.88993 -1.11171,-0.88993 -0.31523,0 -5.06305,-4.58461 -5.06305,-4.889 0,-0.14992 -0.0842,-0.27258 -0.18711,-0.27258 -0.10291,0 -0.18711,-0.12534 -0.18711,-0.27853 0,-0.1532 -0.42101,-0.6686 -0.93557,-1.14535 -0.51457,-0.47675 -0.93557,-0.99216 -0.93557,-1.14535 0,-0.1532 -0.0842,-0.27854 -0.18712,-0.27854 -0.10291,0 -0.18711,-0.1425 -0.18711,-0.31668 0,-0.17417 -0.1684,-0.43213 -0.37423,-0.57324 -0.20582,-0.14112 -0.37423,-0.39908 -0.37423,-0.57325 0,-0.17418 -0.0842,-0.31668 -0.18711,-0.31668 -0.10291,0 -0.18711,-0.160186 -0.18711,-0.355966 0,-0.19579 -0.0842,-0.35597 -0.18712,-0.35597 -0.10291,0 -0.18711,-0.14251 -0.18711,-0.31668 0,-0.17418 -0.1684,-0.43214 -0.37423,-0.57325 -0.21976,-0.15067 -0.37423,-0.46075 -0.37423,-0.75124 0,-0.27206 -0.0842,-0.49466 -0.18711,-0.49466 -0.10291,0 -0.18712,-0.24028 -0.18712,-0.53396 0,-0.36006 -0.093,-0.53395 -0.28559,-0.53395 -0.37132,0 -1.95977,-1.510958 -1.95977,-1.864168 0,-0.14941 -0.0842,-0.27166 -0.18712,-0.27166 -0.10291,0 -0.18711,-0.16019 -0.18711,-0.35597 0,-0.19578 -0.0842,-0.35597 -0.18711,-0.35597 -0.10292,0 -0.18712,-0.16019 -0.18712,-0.35597 0,-0.19579 -0.0842,-0.35597 -0.18711,-0.35597 -0.10291,0 -0.18712,-0.14251 -0.18712,-0.31668 0,-0.17417 -0.1684,-0.43214 -0.37422,-0.57325 -0.20583,-0.14111 -0.37423,-0.39908 -0.37423,-0.57325 0,-0.17417 -0.0842,-0.316678 -0.18712,-0.316678 -0.10291,0 -0.18711,-0.160187 -0.18711,-0.355971 0,-0.195784 -0.0842,-0.355971 -0.18711,-0.355971 -0.10292,0 -0.18712,-0.160187 -0.18712,-0.355971 0,-0.195784 -0.0842,-0.355971 -0.18711,-0.355971 -0.10291,0 -0.18711,-0.163827 -0.18711,-0.36406 0,-0.383502 -0.77486,-1.237809 -1.12269,-1.237809 -0.30704,0 -1.122681,-0.83463 -1.122681,-1.148817 0,-0.151287 -0.0842,-0.275067 -0.18712,-0.275067 -0.10291,0 -0.18711,-0.160187 -0.18711,-0.355972 0,-0.195784 -0.0842,-0.355971 -0.18711,-0.355971 -0.10292,0 -0.18712,-0.160186 -0.18712,-0.355971 0,-0.195784 -0.0842,-0.355971 -0.18711,-0.355971 -0.10291,0 -0.18712,-0.160186 -0.18712,-0.355971 0,-0.195784 -0.0842,-0.355971 -0.18711,-0.355971 -0.10291,0 -0.18711,-0.24028 -0.18711,-0.533956 0,-0.293676 -0.0842,-0.533957 -0.18712,-0.533957 -0.10291,0 -0.18711,-0.320374 -0.18711,-0.711942 0,-0.391568 -0.0842,-0.711942 -0.18711,-0.711942 -0.10693,0 -0.18712,-0.533956 -0.18712,-1.245898 0,-0.711942 -0.0802,-1.245899 -0.18711,-1.245899 -0.10292,0 -0.18712,-0.160187 -0.18712,-0.355971 0,-0.195784 0.0842,-0.355971 0.18712,-0.355971 0.10395,0 0.18711,-0.474628 0.18711,-1.067913 0,-0.593284 0.0832,-1.067913 0.18712,-1.067913 0.10291,0 0.18711,-0.160187 0.18711,-0.355971 0,-0.195784 0.0842,-0.355971 0.18711,-0.355971 0.10292,0 0.18712,-0.160187 0.18712,-0.355971 0,-0.195784 0.0842,-0.355971 0.18711,-0.355971 0.10291,0 0.18711,-0.122247 0.18711,-0.271663 0,-0.353205 1.588461,-1.864163 1.959781,-1.864163 0.16085,0 0.28559,-0.155481 0.28559,-0.355971 0,-0.222592 -0.12474,-0.355971 -0.33292,-0.355971 -0.18311,0 -0.450801,-0.155572 -0.594881,-0.345715 -0.14407,-0.190144 -0.58367,-0.397419 -0.97687,-0.460609 -0.39321,-0.06319 -0.71492,-0.187946 -0.71492,-0.277234 0,-0.08929 -0.16841,-0.162341 -0.37423,-0.162341 -0.20583,0 -0.37423,-0.08009 -0.37423,-0.177985 0,-0.09789 -0.1684,-0.177986 -0.37423,-0.177986 -0.20582,0 -0.37422,-0.08009 -0.37422,-0.177985 0,-0.09789 -0.14982,-0.177986 -0.33292,-0.177986 -0.18311,0 -0.4543,-0.160186 -0.60265,-0.355971 -0.14835,-0.195784 -0.37745,-0.355971 -0.5091,-0.355971 -0.13165,0 -0.23936,-0.08009 -0.23936,-0.177985 0,-0.09789 -0.12786,-0.177986 -0.28414,-0.177986 -0.37006,0 -2.70968,-2.225479 -2.70968,-2.577493 0,-0.148652 -0.0842,-0.270275 -0.18712,-0.270275 -0.10291,0 -0.18711,-0.160187 -0.18711,-0.355971 0,-0.195784 -0.0842,-0.355971 -0.18711,-0.355971 -0.10578,0 -0.18712,-0.508944 -0.18712,-1.17086 0,-1.13334 0.024,-1.192778 0.74846,-1.854893 0.49374,-0.451247 0.74845,-0.840211 0.74845,-1.142952 0,-0.252405 -0.0842,-0.458918 -0.18711,-0.458918 -0.10291,0 -0.18711,-0.160187 -0.18711,-0.355971 0,-0.195784 -0.0842,-0.355971 -0.18712,-0.355971 -0.10291,0 -0.18711,-0.160187 -0.18711,-0.355971 0,-0.195784 -0.0842,-0.355971 -0.18712,-0.355971 -0.10291,0 -0.18711,-0.24028 -0.18711,-0.533956 0,-0.293676 -0.0842,-0.533957 -0.18711,-0.533957 -0.10915,0 -0.18712,-0.593285 -0.18712,-1.423884 0,-0.830599 0.078,-1.423884 0.18712,-1.423884 0.10291,0 0.18711,-0.142506 0.18711,-0.316679 0,-0.174174 0.1684,-0.432135 0.37423,-0.573249 0.52837,-0.362251 0.46501,-0.844427 -0.18712,-1.423884 -0.30873,-0.274334 -0.56134,-0.626842 -0.56134,-0.783351 0,-0.156509 -0.0842,-0.284562 -0.18711,-0.284562 -0.10291,0 -0.18712,-0.142505 -0.18712,-0.316679 0,-0.174173 -0.1684,-0.432135 -0.37422,-0.573248 -0.21976,-0.150667 -0.37423,-0.46075 -0.37423,-0.751234 0,-0.272066 -0.0842,-0.494665 -0.18711,-0.494665 -0.10292,0 -0.18712,-0.320374 -0.18712,-0.711942 0,-0.391568 -0.0842,-0.711942 -0.18711,-0.711942 -0.10292,0 -0.18712,-0.400467 -0.18712,-0.889927 0,-0.48946 0.0842,-0.889928 0.18712,-0.889928 0.10291,0 0.18711,-0.320374 0.18711,-0.711942 0,-0.391568 0.0842,-0.711942 0.18712,-0.711942 0.10291,0 0.18711,-0.122248 0.18711,-0.271662 0,-0.45892 1.61836,-1.864164 2.14689,-1.864164 0.25998,0 0.4727,-0.08009 0.4727,-0.177985 0,-0.102837 0.59253,-0.177986 1.40336,-0.177986 0.81083,0 1.40335,0.07515 1.40335,0.177986 0,0.09789 0.25261,0.177985 0.56134,0.177985 0.30874,0 0.56135,0.08009 0.56135,0.177986 0,0.09789 0.1684,0.177985 0.37422,0.177985 0.20583,0 0.37423,0.08009 0.37423,0.177986 0,0.09789 0.13462,0.177985 0.29916,0.177985 0.16453,0 0.53512,0.240281 0.82352,0.533957 0.28841,0.293676 0.61911,0.533956 0.7349,0.533956 0.27191,0 1.884701,1.531 1.884701,1.789126 0,0.108143 0.3368,0.504438 0.74846,0.880657 0.41165,0.376218 0.74845,0.810453 0.74845,0.964966 0,0.154513 0.0842,0.280932 0.18711,0.280932 0.10292,0 0.18712,0.125861 0.18712,0.279692 0,0.15383 0.12029,0.394111 0.2673,0.533956 0.30666,0.291697 0.85538,0.34063 0.85538,0.07628 0,-0.09789 0.47143,-0.177986 1.04761,-0.177986 0.92839,0 1.10877,0.06228 1.58502,0.547231 l 0.53741,0.54723 0.47323,-0.450147 c 0.26028,-0.247581 0.47324,-0.573928 0.47324,-0.725216 0,-0.151288 0.14981,-0.275069 0.33292,-0.275069 0.1831,0 0.4543,-0.160187 0.60265,-0.355971 0.18785,-0.247917 0.48438,-0.355971 0.97687,-0.355971 0.38894,0 0.70715,0.08009 0.70715,0.177986 0,0.09789 0.13232,0.177985 0.29404,0.177985 0.37816,0 0.82865,0.428506 0.82865,0.788222 0,0.15383 0.0842,0.279691 0.18711,0.279691 0.10291,0 0.18711,0.240281 0.18711,0.533957 0,0.293676 0.0842,0.533956 0.18712,0.533956 0.10291,0 0.18711,0.400468 0.18711,0.889928 0,0.48946 0.0842,0.889927 0.18712,0.889927 0.10291,0 0.18711,0.280328 0.18711,0.62295 0,0.342622 -0.0842,0.622949 -0.18711,0.622949 -0.11435,0 -0.18712,0.830599 -0.18712,2.135826 0,1.305227 -0.0728,2.135826 -0.18711,2.135826 -0.10692,0 -0.18712,0.533957 -0.18712,1.245899 0,0.711942 -0.0802,1.245898 -0.18711,1.245898 -0.10291,0 -0.18711,0.400468 -0.18711,0.889928 0,0.48946 -0.0842,0.889927 -0.18712,0.889927 -0.10291,0 -0.18711,0.400468 -0.18711,0.889928 0,0.48946 -0.0842,0.889927 -0.18712,0.889927 -0.10291,0 -0.18711,0.320374 -0.18711,0.711942 0,0.391568 -0.0842,0.711942 -0.18711,0.711942 -0.10292,0 -0.18712,0.320374 -0.18712,0.711942 0,0.391568 -0.0842,0.711942 -0.18711,0.711942 -0.10291,0 -0.18712,0.320374 -0.18712,0.711942 0,0.391569 -0.0842,0.711942 -0.18711,0.711942 -0.10291,0 -0.18711,0.320374 -0.18711,0.711942 v 0.711942 h 1.49691 c 0.8732,0 1.49691,0.07416 1.49691,0.177986 0,0.09789 0.2105,0.177985 0.46778,0.177985 0.25729,0 0.46779,0.08009 0.46779,0.177986 0,0.09789 0.12985,0.177985 0.28857,0.177985 0.15871,0 0.41309,0.100117 0.56529,0.222482 1.044,0.839371 1.39151,1.20168 1.39151,1.450798 0,0.156508 0.0842,0.284561 0.18711,0.284561 0.10291,0 0.18711,0.160187 0.18711,0.355971 0,0.195784 0.0842,0.355971 0.18712,0.355971 0.10291,0 0.18711,0.160187 0.18711,0.355971 0,0.195784 0.0842,0.355971 0.18712,0.355971 0.10291,0 0.18711,0.320374 0.18711,0.711942 0,0.391568 0.0842,0.711942 0.18711,0.711942 0.10316,0 0.18712,0.461531 0.18712,1.028621 0,0.824441 0.0743,1.07955 0.37422,1.285191 0.20583,0.141114 0.37423,0.399075 0.37423,0.573248 0,0.174173 0.0842,0.316679 0.18712,0.316679 0.10291,0 0.18711,0.320374 0.18711,0.711942 0,0.391568 0.0842,0.711942 0.18711,0.711942 0.10292,0 0.18712,0.400468 0.18712,0.889928 0,0.48946 0.0842,0.889927 0.18711,0.889927 0.10291,0 0.18712,0.320374 0.18712,0.711942 0,0.391568 0.0842,0.711942 0.18711,0.711942 0.10692,0 0.18711,0.533957 0.18711,1.245899 0,0.711942 -0.0802,1.245898 -0.18711,1.245898 -0.3308,0 -0.1994,0.624934 0.18711,0.889928 0.21976,0.150667 0.37423,0.460749 0.37423,0.751234 0,0.272065 0.0842,0.494665 0.18712,0.494665 0.10291,0 0.18711,0.36042 0.18711,0.800934 0,0.440514 0.0842,0.800935 0.18711,0.800935 0.10292,0 0.18712,0.400468 0.18712,0.889928 0,0.489463 0.0842,0.889923 0.18711,0.889923 0.1134,0 0.18712,0.77127 0.18712,1.95784 0,1.18658 -0.0737,1.957848 -0.18712,1.957848 -0.34587,0 -0.19845,0.98155 0.18712,1.24589 0.20582,0.14112 0.37422,0.39908 0.37422,0.57325 0,0.17418 0.0842,0.31668 0.18712,0.31668 0.11434,0 0.18711,0.8306 0.18711,2.13583 0,1.305216 0.0728,2.135816 0.18711,2.135816 0.10693,0 0.18712,0.53396 0.18712,1.2459 0,0.71194 -0.0802,1.2459 -0.18712,1.2459 -0.10291,0 -0.18711,0.40047 -0.18711,0.88993 0,0.48946 0.0842,0.88993 0.18711,0.88993 0.11551,0 0.18712,0.91959 0.18712,2.4028 0,1.48321 -0.0716,2.4028 -0.18712,2.4028 -0.10291,0 -0.18711,0.12586 -0.18711,0.2797 0,0.50072 -0.50699,0.78822 -1.38999,0.78822 -0.47046,0 -0.85538,-0.0801 -0.85538,-0.17799 z m 1.49692,-1.2459 c 0,-0.19578 0.0842,-0.35597 0.18711,-0.35597 0.11218,0 0.18711,-0.70794 0.18711,-1.76786 0,-1.61154 -0.0331,-1.77785 -0.37422,-1.88084 -0.43666,-0.13183 -1.12269,0.0386 -1.12269,0.27897 0,0.0913 -0.49819,0.16599 -1.10709,0.16599 -0.71031,0 -1.1411,0.0797 -1.20199,0.22249 -0.0731,0.1713 -0.1369,0.16532 -0.27743,-0.026 -0.14886,-0.20267 -0.27428,-0.16122 -0.68008,0.22479 -0.44034,0.41886 -0.46556,0.50372 -0.21932,0.73795 0.36525,0.34743 0.86632,0.33874 0.86632,-0.015 0,-0.39684 0.46454,-0.78822 0.93557,-0.78822 0.43329,0 0.93557,0.38288 0.93557,0.71318 0,0.11256 0.3368,0.51247 0.74845,0.88869 0.59979,0.54816 0.74846,0.81054 0.74846,1.32093 0,0.3503 0.0842,0.63691 0.18711,0.63691 0.10291,0 0.18712,-0.16019 0.18712,-0.35597 z m -4.49074,-2.66978 c 0,-0.0979 0.0842,-0.17798 0.18712,-0.17798 0.10291,0 0.18711,0.0801 0.18711,0.17798 0,0.0979 -0.0842,0.17799 -0.18711,0.17799 -0.10292,0 -0.18712,-0.0801 -0.18712,-0.17799 z m 2.24537,-1.60187 c 0,-0.0979 0.1684,-0.17798 0.37423,-0.17798 0.20582,0 0.37422,-0.0801 0.37422,-0.17799 0,-0.0979 0.13013,-0.17799 0.28918,-0.17799 0.15905,0 0.49585,-0.19659 0.74845,-0.43687 0.44554,-0.42379 0.45929,-0.51438 0.45929,-3.02575 0,-1.60727 -0.071,-2.588876 -0.18712,-2.588876 -0.10291,0 -0.18711,-0.44624 -0.18711,-0.99164 0,-0.64895 -0.0981,-1.08491 -0.28378,-1.26156 -0.25362,-0.24125 -0.34112,-0.21153 -0.82352,0.27969 -0.33534,0.34147 -0.72392,0.54962 -1.02603,0.54962 -0.26745,0 -0.48627,0.0801 -0.48627,0.17799 0,0.0979 -0.3368,0.17798 -0.74845,0.17798 -0.41165,0 -0.74846,-0.0437 -0.74846,-0.0971 0,-0.21651 0.93839,-0.97083 1.20774,-0.97083 0.15904,0 0.28917,-0.0801 0.28917,-0.17798 0,-0.0979 0.16841,-0.17799 0.37423,-0.17799 0.20583,0 0.37423,-0.0801 0.37423,-0.17799 0,-0.0979 0.1684,-0.17798 0.37423,-0.17798 0.29106,0 0.37422,-0.11866 0.37422,-0.53396 0,-0.29367 0.0842,-0.53395 0.18712,-0.53395 0.10291,0 0.18711,-0.40047 0.18711,-0.88993 0,-0.489458 0.0842,-0.889928 0.18712,-0.889928 0.10291,0 0.18711,-0.24028 0.18711,-0.53396 0,-0.29367 -0.0842,-0.53395 -0.18711,-0.53395 -0.10396,0 -0.18712,-0.47463 -0.18712,-1.06791 0,-0.59329 -0.0832,-1.067918 -0.18711,-1.067918 -0.10291,0 -0.18712,-0.400467 -0.18712,-0.889927 0,-0.489461 -0.0842,-0.889928 -0.18711,-0.889928 -0.10291,0 -0.18711,-0.200234 -0.18711,-0.444964 0,-0.24473 -0.0842,-0.444963 -0.18712,-0.444963 -0.10291,0 -0.18711,-0.160187 -0.18711,-0.355971 0,-0.222593 -0.12475,-0.355971 -0.33292,-0.355971 -0.18311,0 -0.4543,0.160186 -0.60265,0.355971 -0.1584,0.209038 -0.48438,0.355971 -0.78976,0.355971 -0.28602,0 -0.52004,0.08009 -0.52004,0.177985 0,0.09789 -0.421,0.177986 -0.93557,0.177986 -0.81082,0 -0.93557,-0.04746 -0.93557,-0.355971 0,-0.237314 0.12475,-0.355971 0.37423,-0.355971 0.20583,0 0.37423,-0.08009 0.37423,-0.177986 0,-0.09789 0.1684,-0.177985 0.37423,-0.177985 0.20582,0 0.37422,-0.08009 0.37422,-0.177986 0,-0.09789 0.16841,-0.177985 0.37423,-0.177985 0.20583,0 0.37423,-0.08009 0.37423,-0.177986 0,-0.09789 0.2526,-0.177985 0.56134,-0.177985 0.4366,0 0.56134,-0.0791 0.56134,-0.355971 0,-0.195785 0.0842,-0.355972 0.18712,-0.355972 0.10915,0 0.18711,-0.593284 0.18711,-1.423884 0,-0.830599 -0.078,-1.423884 -0.18711,-1.423884 -0.10292,0 -0.18712,-0.320374 -0.18712,-0.711942 0,-0.391568 -0.0842,-0.711942 -0.18711,-0.711942 -0.10291,0 -0.18712,-0.400467 -0.18712,-0.889927 0,-0.48946 -0.0842,-0.889928 -0.18711,-0.889928 -0.10291,0 -0.18711,-0.160187 -0.18711,-0.355971 0,-0.195784 -0.0656,-0.355971 -0.14581,-0.355971 -0.0802,0 -0.26718,0.160187 -0.41553,0.355971 -0.14836,0.195784 -0.41955,0.355971 -0.60265,0.355971 -0.18311,0 -0.33292,0.08009 -0.33292,0.177986 0,0.09789 -0.16841,0.177985 -0.37423,0.177985 -0.20583,0 -0.37423,0.08009 -0.37423,0.177986 0,0.100401 -0.53016,0.177985 -1.21624,0.177985 -0.68609,0 -1.21624,-0.07758 -1.21624,-0.177985 0,-0.09789 0.10771,-0.177986 0.23936,-0.177986 0.13165,0 0.36074,-0.160187 0.5091,-0.355971 0.15839,-0.209038 0.48437,-0.355971 0.78976,-0.355971 0.28602,0 0.52003,-0.08009 0.52003,-0.177985 0,-0.09789 0.1684,-0.177986 0.37423,-0.177986 0.20583,0 0.37423,-0.08009 0.37423,-0.177985 0,-0.09789 0.13231,-0.177986 0.29403,-0.177986 0.56373,0 0.82865,-0.479612 0.82865,-1.500163 0,-0.545399 -0.0842,-0.991634 -0.18711,-0.991634 -0.10292,0 -0.18712,-0.160187 -0.18712,-0.355971 0,-0.195784 -0.0842,-0.355971 -0.18711,-0.355971 -0.10291,0 -0.18711,-0.24028 -0.18711,-0.533956 0,-0.293676 -0.0842,-0.533957 -0.18712,-0.533957 -0.10291,0 -0.18711,-0.160187 -0.18711,-0.355971 0,-0.195784 -0.0842,-0.355971 -0.18712,-0.355971 -0.10291,0 -0.18711,-0.160187 -0.18711,-0.355971 0,-0.195784 -0.0842,-0.355971 -0.18711,-0.355971 -0.10292,0 -0.18712,-0.12378 -0.18712,-0.275068 0,-0.348762 -0.83023,-1.148816 -1.19214,-1.148816 -0.15047,0 -0.30901,-0.100117 -0.3523,-0.222482 -0.11166,-0.315595 -6.72017,-0.3103 -6.83082,0.0055 -0.0426,0.121429 -0.3988,0.217 -0.80891,0.217 -0.40308,0 -0.73286,0.08009 -0.73286,0.177986 0,0.09789 -0.21652,0.177985 -0.48115,0.177985 -0.54144,0 -1.01577,0.368076 -1.01577,0.788221 0,0.153831 -0.0842,0.279692 -0.18711,0.279692 -0.10692,0 -0.18711,0.533957 -0.18711,1.245899 0,0.711942 -0.0802,1.245898 -0.18712,1.245898 -0.10291,0 -0.18711,0.364061 -0.18711,0.809024 0,1.187762 0.57544,1.682773 1.95619,1.682773 0.5707,0 1.03763,0.08009 1.03763,0.177986 0,0.09789 -0.13231,0.177985 -0.29404,0.177985 -0.16171,0 -0.41432,0.11442 -0.56134,0.254265 -0.30665,0.291697 -0.3581,0.813648 -0.0802,0.813648 0.10291,0 0.18712,0.400468 0.18712,0.889928 0,0.48946 0.0842,0.889927 0.18711,0.889927 0.10291,0 0.18711,0.320374 0.18711,0.711942 0,0.391568 0.0842,0.711942 0.18712,0.711942 0.10291,0 0.18711,0.240281 0.18711,0.533957 0,0.293676 0.0842,0.533956 0.18711,0.533956 0.10292,0 0.18712,0.240281 0.18712,0.533957 0,0.293676 0.0842,0.533956 0.18711,0.533956 0.10292,0 0.18712,0.128054 0.18712,0.284562 0,0.156508 0.2526,0.509017 0.56134,0.783351 0.54305,0.482537 0.79046,1.423885 0.37423,1.423885 -0.10292,0 -0.18712,0.24028 -0.18712,0.533956 0,0.366759 -0.0921,0.533957 -0.29403,0.533957 -0.16172,0 -0.41759,0.117518 -0.56859,0.261151 -0.17433,0.165836 -0.49385,0.23016 -0.87542,0.176239 -0.33049,-0.0467 -0.49563,-0.03741 -0.36699,0.02066 0.27745,0.125232 0.31679,0.787849 0.0468,0.787849 -0.10291,0 -0.18711,0.240281 -0.18711,0.533957 0,0.293676 -0.0842,0.533956 -0.18712,0.533956 -0.10291,0 -0.18711,-0.08009 -0.18711,-0.177985 0,-0.09789 -0.0842,-0.177986 -0.18712,-0.177986 -0.10291,0 -0.18711,0.240281 -0.18711,0.53396 0,0.29367 0.0459,0.53395 0.10206,0.53395 0.22762,0 1.02062,-0.892607 1.02062,-1.148813 0,-0.151288 0.13232,-0.275068 0.29404,-0.275068 0.3691,0 0.82865,-0.425617 0.82865,-0.767472 0,-0.271904 0.83051,-0.505601 1.25116,-0.352058 0.13516,0.04934 0.24575,0.206995 0.24575,0.350352 0,0.343321 0.45878,0.769178 0.82864,0.769178 0.16173,0 0.29404,0.08009 0.29404,0.177986 0,0.101706 0.56134,0.177985 1.3098,0.177985 0.72039,0 1.3098,0.04577 1.3098,0.101706 0,0.208829 -0.54508,0.610234 -0.82865,0.610234 -0.16172,0 -0.29404,0.0801 -0.29404,0.17799 0,0.0979 -0.13231,0.17798 -0.29403,0.17798 -0.40987,0 -0.99576,0.56997 -0.68664,0.66798 0.12772,0.0405 0.23222,0.30724 0.23222,0.59275 0,0.28552 0.0842,0.51913 0.18711,0.51913 0.10291,0 0.18711,0.16019 0.18711,0.35597 0,0.19578 0.0842,0.35597 0.18712,0.35597 0.10291,0 0.18711,0.16019 0.18711,0.35597 0,0.27687 0.12475,0.35597 0.56134,0.35597 0.5247,0 0.56135,0.0439 0.56135,0.672648 0,0.46847 0.11359,0.75053 0.37422,0.92922 0.20583,0.14112 0.37423,0.39908 0.37423,0.57325 0,0.17417 0.0842,0.31668 0.18712,0.31668 0.10291,0 0.18711,0.16019 0.18711,0.35597 0,0.19579 0.0768,0.35597 0.17067,0.35597 0.0939,0 0.22757,0.32038 0.29711,0.71194 0.0695,0.39157 0.20325,0.71195 0.29712,0.71195 0.0939,0 0.17067,0.16018 0.17067,0.35597 0,0.19578 0.0842,0.355966 0.18711,0.355966 0.10292,0 0.18712,0.16019 0.18712,0.35597 0,0.19578 0.0842,0.35597 0.18711,0.35597 0.10291,0 0.18711,0.16019 0.18711,0.35597 0,0.20496 0.12475,0.35597 0.29404,0.35597 0.44169,0 0.82865,0.45119 0.82865,0.96621 0,0.25172 0.0842,0.45768 0.18711,0.45768 0.10291,0 0.18712,0.1425 0.18712,0.31668 0,0.17417 0.1684,0.43213 0.37422,0.57324 0.20583,0.14112 0.37423,0.3814 0.37423,0.53396 0,0.15256 0.1684,0.39284 0.37423,0.53396 0.20582,0.14111 0.37423,0.36189 0.37423,0.49061 0,0.34418 0.79027,1.08776 1.16946,1.10037 0.1801,0.006 0.32745,-0.0692 0.32745,-0.1671 z m -2.02175,-4.01439 c -0.20174,-0.21743 -0.19593,-0.30902 0.0334,-0.52718 0.15266,-0.14522 0.40989,-0.26404 0.57161,-0.26404 0.16172,0 0.29403,-0.0801 0.29403,-0.17798 0,-0.0979 0.33681,-0.17799 0.74846,-0.17799 0.41165,0 0.74846,0.0437 0.74846,0.0971 0,0.2855 -0.98466,0.97083 -1.39485,0.97083 -0.26196,0 -0.47629,0.0801 -0.47629,0.17799 0,0.25356 -0.23985,0.20845 -0.52484,-0.0987 z m -3.59167,-5.520546 c 0,-0.20883 0.54508,-0.61023 0.82865,-0.61023 0.16172,0 0.29403,-0.0801 0.29403,-0.17799 0,-0.0979 0.25261,-0.17798 0.56135,-0.17798 0.30873,0 0.56134,-0.0801 0.56134,-0.17799 0,-0.0979 0.2526,-0.17798 0.56134,-0.17798 0.30874,0 0.56134,-0.0801 0.56134,-0.17799 0,-0.0979 0.1684,-0.17799 0.37423,-0.17799 0.21546,0 0.37423,0.11866 0.37423,0.2797 0,0.34304 -0.44468,0.78822 -0.78734,0.78822 -0.139,0 -0.37411,0.16018 -0.52246,0.35597 -0.22409,0.29573 -0.48438,0.35597 -1.53822,0.35597 -0.69767,0 -1.26849,-0.0458 -1.26849,-0.10171 z M 79.018473,89.5869 c 0,-0.09789 0.0842,-0.177986 0.18711,-0.177986 0.10292,0 0.18712,0.08009 0.18712,0.177986 0,0.09789 -0.0842,0.177985 -0.18712,0.177985 -0.10291,0 -0.18711,-0.08009 -0.18711,-0.177985 z m 5.98765,-4.093667 c 0,-0.09789 0.1684,-0.177986 0.37422,-0.177986 0.20583,0 0.37423,-0.08009 0.37423,-0.177985 0,-0.09789 0.1684,-0.177986 0.37423,-0.177986 0.20582,0 0.37423,-0.08009 0.37423,-0.177985 0,-0.09789 0.2105,-0.177986 0.46778,-0.177986 0.25728,0 0.46779,-0.08009 0.46779,-0.177985 0,-0.09789 0.1684,-0.177986 0.37422,-0.177986 0.20583,0 0.37423,-0.08009 0.37423,-0.177985 0,-0.09789 0.1684,-0.177986 0.37423,-0.177986 0.20583,0 0.37423,-0.08009 0.37423,-0.177985 0,-0.09789 0.1684,-0.177986 0.37423,-0.177986 0.51199,0 0.47266,0.456507 -0.0851,0.98701 -0.2526,0.240281 -0.58941,0.436874 -0.74845,0.436874 -0.15905,0 -0.28918,0.08009 -0.28918,0.177986 0,0.09789 -0.1684,0.177985 -0.37423,0.177985 -0.20582,0 -0.37422,0.08009 -0.37422,0.177986 0,0.100402 -0.53016,0.177985 -1.21624,0.177985 -0.68609,0 -1.21624,-0.07758 -1.21624,-0.177985 z m -7.48456,-7.831362 c 0,-0.09789 0.0842,-0.177986 0.18711,-0.177986 0.10292,0 0.18712,0.08009 0.18712,0.177986 0,0.09789 -0.0842,0.177985 -0.18712,0.177985 -0.10291,0 -0.18711,-0.08009 -0.18711,-0.177985 z m -0.74846,-0.889928 c 0,-0.391568 0.0842,-0.711942 0.18712,-0.711942 0.10291,0 0.18711,0.320374 0.18711,0.711942 0,0.391568 -0.0842,0.711942 -0.18711,0.711942 -0.10291,0 -0.18712,-0.320374 -0.18712,-0.711942 z m 2.99383,-2.237532 c 0,-0.208829 0.54507,-0.610236 0.82864,-0.610236 0.16172,0 0.29404,-0.08009 0.29404,-0.177985 0,-0.09789 0.33681,-0.177986 0.74846,-0.177986 0.41165,0 0.74845,-0.08009 0.74845,-0.177985 0,-0.101707 0.56134,-0.177986 1.3098,-0.177986 1.18505,0 1.3098,0.0339 1.3098,0.355971 0,0.237313 -0.12475,0.355971 -0.37423,0.355971 -0.20583,0 -0.37423,0.08009 -0.37423,0.177986 0,0.09789 -0.3368,0.177985 -0.74846,0.177985 -0.41165,0 -0.74845,0.08009 -0.74845,0.177986 0,0.103824 -0.62371,0.177985 -1.49691,0.177985 -0.8233,0 -1.49691,-0.04577 -1.49691,-0.101706 z m -1.87114,-3.813975 c 0,-0.09789 -0.1684,-0.177986 -0.37423,-0.177986 -0.41273,0 -0.50967,-0.280293 -0.14034,-0.405764 0.12865,-0.0437 0.17476,-0.140005 0.10247,-0.214006 -0.0723,-0.074 -0.26636,-0.0062 -0.43127,0.150674 -0.24839,0.236263 -0.25794,0.330391 -0.0557,0.548375 0.27761,0.299206 0.89906,0.367435 0.89906,0.09871 z m 1.87114,-1.231067 c 0,-0.668433 0.0854,-1.091003 0.23389,-1.156906 0.18711,-0.08306 0.18711,-0.12459 0,-0.207648 -0.12864,-0.0571 -0.23389,-0.410851 -0.23389,-0.786104 0,-0.384571 -0.10206,-0.717125 -0.2339,-0.762139 -0.15865,-0.05417 -0.0985,-0.194485 0.18712,-0.436177 0.32211,-0.272615 0.421,-0.550007 0.421,-1.180869 0,-0.453504 -0.0842,-0.824554 -0.18711,-0.824554 -0.10291,0 -0.18711,0.400468 -0.18711,0.889928 0,0.77127 -0.0499,0.889927 -0.37423,0.889927 -0.29107,0 -0.37423,0.118658 -0.37423,0.533957 0,0.293676 -0.0842,0.533956 -0.18711,0.533956 -0.10292,0 -0.18712,0.400468 -0.18712,0.889928 0,0.48946 0.0842,0.889927 0.18712,0.889927 0.10291,0 0.18711,0.240281 0.18711,0.533957 0,0.293676 0.0842,0.533956 0.18711,0.533956 0.10292,0 0.18712,0.160187 0.18712,0.355971 0,0.195785 0.0842,0.355971 0.18711,0.355971 0.10366,0 0.18712,-0.469684 0.18712,-1.053081 z m -7.858791,0.595404 c 0,-0.05594 -0.13031,-0.22566 -0.28958,-0.37716 -0.36537,-0.347547 -0.58488,-0.173449 -0.24386,0.19341 0.25556,0.274914 0.53344,0.370635 0.53344,0.18375 z m 10.104151,-0.07628 c 0,-0.09789 -0.0842,-0.177986 -0.18711,-0.177986 -0.10291,0 -0.18711,0.08009 -0.18711,0.177986 0,0.09789 0.0842,0.177985 0.18711,0.177985 0.10291,0 0.18711,-0.08009 0.18711,-0.177985 z m -5.61341,-0.519125 c 0,-0.187625 0.10525,-0.376895 0.23389,-0.420596 0.12864,-0.0437 0.16616,-0.148175 0.0834,-0.232159 -0.0828,-0.08399 -0.23654,-0.03488 -0.34169,0.109121 -0.14468,0.198129 -0.21428,0.207699 -0.28609,0.03934 -0.0522,-0.122365 -0.22079,-0.222482 -0.37465,-0.222482 -0.15387,0 -0.61347,-0.330383 -1.02134,-0.734186 -0.40787,-0.403803 -0.78791,-0.690125 -0.84453,-0.636268 -0.10986,0.104502 2.17423,2.401968 2.41069,2.42481 0.0772,0.0075 0.14034,-0.139955 0.14034,-0.327582 z m -5.613421,-0.192817 c 0,-0.09789 -0.0842,-0.177986 -0.18711,-0.177986 -0.10292,0 -0.18712,0.08009 -0.18712,0.177986 0,0.09789 0.0842,0.177985 0.18712,0.177985 0.10291,0 0.18711,-0.08009 0.18711,-0.177985 z m -0.74846,-0.279692 c 0,-0.203606 -0.54177,-0.610236 -0.81305,-0.610236 -0.15314,0 -0.31603,-0.100116 -0.36198,-0.222481 -0.0459,-0.122366 -0.14718,-0.166226 -0.22498,-0.09747 -0.18926,0.167273 0.3614,0.675921 0.73175,0.675921 0.16172,0 0.29404,0.08009 0.29404,0.177986 0,0.09789 0.0842,0.177985 0.18711,0.177985 0.10291,0 0.18711,-0.04577 0.18711,-0.101705 z m 5.987651,-1.144192 c 0,-0.09789 -0.0842,-0.177986 -0.18712,-0.177986 -0.10291,0 -0.18711,0.08009 -0.18711,0.177986 0,0.09789 0.0842,0.177985 0.18711,0.177985 0.10292,0 0.18712,-0.08009 0.18712,-0.177985 z M 67.978752,67.58207 c 0,-0.06194 -0.18129,-0.262171 -0.40286,-0.444964 l -0.40286,-0.332352 0.40286,-0.332352 c 0.50144,-0.413674 0.50882,-0.557576 0.0286,-0.557576 -0.24948,0 -0.37422,0.118658 -0.37422,0.355971 0,0.195784 -0.0842,0.355971 -0.18712,0.355971 -0.27168,0 -0.23012,-1.024614 0.0451,-1.111879 0.16888,-0.05355 0.147,-0.154694 -0.0802,-0.370804 -0.43485,-0.413633 -0.52626,-0.37508 -0.52626,0.221953 0,0.285518 -0.10144,0.551285 -0.22541,0.590595 -0.13146,0.04168 0.12201,0.413423 0.60812,0.891861 0.78747,0.775055 1.1142,0.990171 1.1142,0.733576 z m 0.56134,-0.421345 c 0,-0.09789 -0.0842,-0.177986 -0.18711,-0.177986 -0.10291,0 -0.18712,0.08009 -0.18712,0.177986 0,0.09789 0.0842,0.177985 0.18712,0.177985 0.10291,0 0.18711,-0.08009 0.18711,-0.177985 z m 4.799761,-0.633737 c 0.26352,-0.250662 0.42863,-0.503783 0.36691,-0.562491 -0.0617,-0.05871 -0.28115,0.07854 -0.48763,0.304999 l -0.375421,0.411739 -0.37541,-0.411739 c -0.20648,-0.226458 -0.42545,-0.364147 -0.4866,-0.30598 -0.0907,0.08626 0.63168,0.970519 0.82374,1.008338 0.0304,0.006 0.270891,-0.194202 0.534411,-0.444866 z m 2.31057,0.277766 c 0,-0.09789 -0.0842,-0.177986 -0.18711,-0.177986 -0.10292,0 -0.18712,0.08009 -0.18712,0.177986 0,0.09789 0.0842,0.177985 0.18712,0.177985 0.10291,0 0.18711,-0.08009 0.18711,-0.177985 z m -0.37423,-0.711942 c 0,-0.09789 -0.0842,-0.177986 -0.18711,-0.177986 -0.10291,0 -0.18711,0.08009 -0.18711,0.177986 0,0.09789 0.0842,0.177985 0.18711,0.177985 0.10291,0 0.18711,-0.08009 0.18711,-0.177985 z m 2.99383,-0.533957 c 0,-0.391568 0.0842,-0.711942 0.18711,-0.711942 0.27009,0 0.23064,-0.662957 -0.0468,-0.786103 -0.18711,-0.08306 -0.18711,-0.12459 0,-0.207649 0.36329,-0.161263 0.27557,-0.430132 -0.14033,-0.430132 -0.29107,0 -0.37423,-0.118657 -0.37423,-0.533956 0,-0.415299 0.0832,-0.533957 0.37423,-0.533957 0.24948,0 0.37422,-0.118657 0.37422,-0.355971 0,-0.237313 0.12475,-0.355971 0.37423,-0.355971 0.24949,0 0.37423,-0.118657 0.37423,-0.355971 0,-0.237313 0.12474,-0.355971 0.37423,-0.355971 0.29106,0 0.37422,0.118658 0.37422,0.533957 0,0.293676 0.0842,0.533956 0.18712,0.533956 0.11615,0 0.18711,-0.980481 0.18711,-2.585474 v -2.585473 l -0.85514,-0.813425 c -0.47033,-0.447384 -0.90186,-0.768989 -0.95896,-0.714677 -0.0571,0.05431 0.24352,0.416181 0.66803,0.804154 0.76327,0.697568 0.77184,0.719549 0.77184,1.977973 0,0.951322 -0.0789,1.347584 -0.31241,1.569738 -0.22719,0.21611 -0.33353,0.236919 -0.38982,0.07628 -0.0426,-0.121492 -0.32299,-0.220893 -0.62316,-0.220893 -0.52892,0 -0.54574,0.02698 -0.54574,0.875096 0,0.533273 -0.0914,0.910357 -0.2339,0.96537 -0.17699,0.06831 -0.16693,0.134516 0.0414,0.272133 0.15139,0.100021 0.20301,0.246282 0.11472,0.325025 -0.0883,0.07874 -0.19812,0.04305 -0.24407,-0.07932 -0.0459,-0.122365 -0.24491,-0.222482 -0.44216,-0.222482 -0.23389,0 -0.35864,-0.123815 -0.35864,-0.355971 0,-0.195784 -0.0842,-0.355971 -0.18711,-0.355971 -0.10291,0 -0.18712,-0.222599 -0.18712,-0.494664 0,-0.290485 -0.15446,-0.600568 -0.37422,-0.751234 -0.20583,-0.141114 -0.37423,-0.399076 -0.37423,-0.573249 0,-0.174173 -0.0842,-0.316679 -0.18712,-0.316679 -0.10291,0 -0.18711,-0.125861 -0.18711,-0.279692 0,-0.153829 -0.1263,-0.399831 -0.28067,-0.546669 -0.24949,-0.237314 -0.31687,-0.232547 -0.60645,0.04291 -0.23424,0.222817 -0.26053,0.330574 -0.0936,0.383517 0.12773,0.0405 0.23223,0.307237 0.23223,0.592754 0,0.285519 0.0842,0.519125 0.18711,0.519125 0.10291,0 0.18711,0.240281 0.18711,0.533957 0,0.293676 0.0842,0.533956 0.18712,0.533956 0.10291,0 0.18711,0.160187 0.18711,0.355971 0,0.195784 0.0842,0.355971 0.18711,0.355971 0.10292,0 0.18712,0.240281 0.18712,0.533957 0,0.293676 0.0842,0.533956 0.18711,0.533956 0.10292,0 0.18712,0.240281 0.18712,0.533957 0,0.293676 0.0842,0.533956 0.18711,0.533956 0.10291,0 0.18711,0.160187 0.18711,0.355971 0,0.195784 0.0842,0.355971 0.18712,0.355971 0.10291,0 0.18711,0.240281 0.18711,0.533957 0,0.293676 0.0842,0.533956 0.18712,0.533956 0.10291,0 0.18711,0.12352 0.18711,0.274491 0,0.291808 0.3738,0.775348 0.60812,0.786652 0.0772,0.0037 0.14034,-0.313604 0.14034,-0.705172 z m -3.74228,0 c 0,-0.195784 -0.0842,-0.355971 -0.18712,-0.355971 -0.10291,0 -0.18711,0.160187 -0.18711,0.355971 0,0.195784 0.0842,0.355971 0.18711,0.355971 0.10292,0 0.18712,-0.160187 0.18712,-0.355971 z M 66.107612,65.38087 c 0,-0.09789 -0.0842,-0.177986 -0.18711,-0.177986 -0.10291,0 -0.18712,0.08009 -0.18712,0.177986 0,0.09789 0.0842,0.177985 0.18712,0.177985 0.10291,0 0.18711,-0.08009 0.18711,-0.177985 z m 5.05208,-0.355971 c 0,-0.09789 -0.0842,-0.177986 -0.18712,-0.177986 -0.10291,0 -0.18711,0.08009 -0.18711,0.177986 0,0.09789 0.0842,0.177985 0.18711,0.177985 0.10292,0 0.18712,-0.08009 0.18712,-0.177985 z m 2.619591,0 c 0,-0.09789 -0.0842,-0.177986 -0.18711,-0.177986 -0.10291,0 -0.18712,0.08009 -0.18712,0.177986 0,0.09789 0.0842,0.177985 0.18712,0.177985 0.10291,0 0.18711,-0.08009 0.18711,-0.177985 z m 1.87114,-0.355971 c 0,-0.09789 -0.0842,-0.177986 -0.18711,-0.177986 -0.10292,0 -0.18712,0.08009 -0.18712,0.177986 0,0.09789 0.0842,0.177985 0.18712,0.177985 0.10291,0 0.18711,-0.08009 0.18711,-0.177985 z m -9.917041,-0.355971 c 0,-0.09789 -0.0842,-0.177986 -0.18711,-0.177986 -0.10291,0 -0.18711,0.08009 -0.18711,0.177986 0,0.09789 0.0842,0.177985 0.18711,0.177985 0.10291,0 0.18711,-0.08009 0.18711,-0.177985 z m 0.74846,0 c 0,-0.09789 -0.0842,-0.177986 -0.18711,-0.177986 -0.10292,0 -0.18712,0.08009 -0.18712,0.177986 0,0.09789 0.0842,0.177985 0.18712,0.177985 0.10291,0 0.18711,-0.08009 0.18711,-0.177985 z m 3.92939,0.08306 c 0,-0.181326 -1.33532,-1.364006 -1.43404,-1.270108 -0.0546,0.05195 0.18256,0.374825 0.52704,0.717508 0.58381,0.580765 0.907,0.77767 0.907,0.5526 z m 1.87114,-0.795002 c 0,-0.09789 -0.0842,-0.177986 -0.18711,-0.177986 -0.10292,0 -0.18712,0.08009 -0.18712,0.177986 0,0.09789 0.0842,0.177985 0.18712,0.177985 0.10291,0 0.18711,-0.08009 0.18711,-0.177985 z m 7.858781,0 c 0,-0.09789 -0.0842,-0.177986 -0.18711,-0.177986 -0.10291,0 -0.18711,0.08009 -0.18711,0.177986 0,0.09789 0.0842,0.177985 0.18711,0.177985 0.10291,0 0.18711,-0.08009 0.18711,-0.177985 z M 68.540092,62.533102 c 0,-0.09789 -0.0842,-0.177986 -0.18711,-0.177986 -0.10291,0 -0.18712,0.08009 -0.18712,0.177986 0,0.09789 0.0842,0.177985 0.18712,0.177985 0.10291,0 0.18711,-0.08009 0.18711,-0.177985 z m 6.361881,-0.101707 c 0,-0.408562 -0.46937,-0.788221 -0.97446,-0.788221 -0.24191,0 -0.56122,-0.160187 -0.70957,-0.355971 -0.148351,-0.195784 -0.419541,-0.355971 -0.602651,-0.355971 -0.20818,0 -0.33292,-0.133379 -0.33292,-0.355971 0,-0.195784 -0.0842,-0.355971 -0.18711,-0.355971 -0.10292,0 -0.18712,0.08009 -0.18712,0.177986 0,0.09789 -0.1684,0.177985 -0.37423,0.177985 -0.20582,0 -0.37422,-0.08009 -0.37422,-0.177985 0,-0.09789 -0.16841,-0.177986 -0.37423,-0.177986 -0.2128,0 -0.37423,0.118658 -0.37423,0.275068 0,0.356055 0.83342,1.148816 1.20774,1.148816 0.15904,0 0.28917,0.08009 0.28917,0.177986 0,0.09789 0.16841,0.177985 0.37423,0.177985 0.20583,0 0.37423,0.08009 0.37423,0.177986 0,0.09789 0.421001,0.177985 0.935571,0.177985 0.51456,0 0.93557,0.08009 0.93557,0.177986 0,0.09789 0.0842,0.177985 0.18711,0.177985 0.10291,0 0.18712,-0.12586 0.18712,-0.279692 z m -6.736111,-0.602146 c 0,-0.09344 -0.2105,-0.370128 -0.46778,-0.614858 -0.25728,-0.24473 -0.46778,-0.568745 -0.46778,-0.720033 0,-0.151288 -0.0842,-0.275068 -0.18712,-0.275068 -0.10291,0 -0.18711,-0.160187 -0.18711,-0.355971 0,-0.195784 -0.0842,-0.355971 -0.18712,-0.355971 -0.10291,0 -0.18711,0.160187 -0.18711,0.355971 0,0.195784 0.0842,0.355971 0.18711,0.355971 0.10292,0 0.18712,0.122417 0.18712,0.272035 0,0.14962 0.27365,0.544582 0.60812,0.877695 0.6871,0.684318 0.70167,0.69388 0.70167,0.460229 z m 15.717571,-1.076002 c 0,-0.293676 -0.0842,-0.533957 -0.18711,-0.533957 -0.10291,0 -0.18712,0.240281 -0.18712,0.533957 0,0.293676 0.0842,0.533956 0.18712,0.533956 0.10291,0 0.18711,-0.24028 0.18711,-0.533956 z M 73.030832,59.685334 c 0,-0.09789 -0.16841,-0.177986 -0.37423,-0.177986 -0.20583,0 -0.37423,0.08009 -0.37423,0.177986 0,0.09789 0.1684,0.177985 0.37423,0.177985 0.20582,0 0.37423,-0.08009 0.37423,-0.177985 z m -5.42631,-0.875096 c 0,-0.187626 -0.10207,-0.373503 -0.22682,-0.413058 -0.23352,-0.07404 -0.0851,-0.255859 1.48984,-1.82558 0.88958,-0.886608 0.93547,-0.982213 0.46779,-0.974609 -0.1801,0.0029 -0.53796,0.248231 -0.79524,0.545119 -0.25728,0.296887 -0.65724,0.731365 -0.88879,0.965506 -0.23155,0.234141 -0.421,0.549492 -0.421,0.700779 0,0.156412 -0.16144,0.275069 -0.37423,0.275069 -0.24949,0 -0.37423,-0.118657 -0.37423,-0.355971 0,-0.195784 -0.0481,-0.355971 -0.10692,-0.355971 -0.21954,0 -0.64154,0.518483 -0.64154,0.788222 0,0.333808 0.298,0.371508 0.4522,0.05721 0.0873,-0.177985 0.13098,-0.177985 0.2183,0 0.06,0.122365 0.27053,0.222482 0.46778,0.222482 0.23389,0 0.35864,0.123816 0.35864,0.355971 0,0.195784 0.0842,0.355971 0.18711,0.355971 0.10291,0 0.18711,-0.153512 0.18711,-0.34114 z m 16.653141,-0.192817 c 0,-0.293676 -0.0842,-0.533957 -0.18711,-0.533957 -0.10292,0 -0.18712,0.240281 -0.18712,0.533957 0,0.293676 0.0842,0.533956 0.18712,0.533956 0.10291,0 0.18711,-0.24028 0.18711,-0.533956 z M 72.282372,58.26145 c 0,-0.09789 -0.0842,-0.177986 -0.18711,-0.177986 -0.10292,0 -0.18712,0.08009 -0.18712,0.177986 0,0.09789 0.0842,0.177985 0.18712,0.177985 0.10291,0 0.18711,-0.08009 0.18711,-0.177985 z m 11.226831,0 c 0,-0.09789 -0.0842,-0.177986 -0.18711,-0.177986 -0.10291,0 -0.18711,0.08009 -0.18711,0.177986 0,0.09789 0.0842,0.177985 0.18711,0.177985 0.10291,0 0.18711,-0.08009 0.18711,-0.177985 z m 0,-0.711942 c 0,-0.09789 -0.0842,-0.177986 -0.18711,-0.177986 -0.10291,0 -0.18711,0.08009 -0.18711,0.177986 0,0.09789 0.0842,0.177985 0.18711,0.177985 0.10291,0 0.18711,-0.08009 0.18711,-0.177985 z m -7.11032,-0.355971 c 0,-0.09789 -0.0842,-0.177986 -0.18712,-0.177986 -0.10291,0 -0.18711,0.08009 -0.18711,0.177986 0,0.09789 0.0842,0.177985 0.18711,0.177985 0.10292,0 0.18712,-0.08009 0.18712,-0.177985 z m -4.864971,-0.355971 c 0,-0.09789 -0.0842,-0.177986 -0.18711,-0.177986 -0.10291,0 -0.18711,0.08009 -0.18711,0.177986 0,0.09789 0.0842,0.177985 0.18711,0.177985 0.10291,0 0.18711,-0.08009 0.18711,-0.177985 z m 3.100751,-0.07628 c 0.14702,-0.139846 0.26731,-0.362445 0.26731,-0.494665 0,-0.132219 0.1684,-0.355855 0.37422,-0.496968 0.20583,-0.141114 0.37423,-0.399076 0.37423,-0.573249 0,-0.174174 0.0842,-0.316679 0.18711,-0.316679 0.10292,0 0.18712,-0.160187 0.18712,-0.355971 0,-0.195784 0.0842,-0.355971 0.18711,-0.355971 0.10292,0 0.18712,-0.24295 0.18712,-0.539889 0,-0.381625 -0.19564,-0.725981 -0.66738,-1.174705 -0.36705,-0.349148 -0.71736,-0.587267 -0.77845,-0.529152 -0.0611,0.05811 0.0708,0.255728 0.29314,0.439142 0.41479,0.342189 0.58061,1.448633 0.21712,1.448633 -0.10292,0 -0.18712,0.160187 -0.18712,0.355971 0,0.195784 -0.0842,0.355971 -0.18711,0.355971 -0.10291,0 -0.18711,0.125861 -0.18711,0.279692 0,0.359715 -0.45049,0.788221 -0.82865,0.788221 -0.16172,0 -0.29404,-0.142506 -0.29404,-0.316679 0,-0.174174 -0.1684,-0.432135 -0.37423,-0.573249 -0.20582,-0.141113 -0.374221,-0.399075 -0.374221,-0.573248 0,-0.174174 -0.0842,-0.316679 -0.18712,-0.316679 -0.10291,0 -0.18711,-0.102459 -0.18711,-0.227686 0,-0.125228 -0.1684,-0.343143 -0.37423,-0.484256 -0.20582,-0.141113 -0.37423,-0.399075 -0.37423,-0.573249 0,-0.174173 -0.0842,-0.316679 -0.18711,-0.316679 -0.10291,0 -0.18712,-0.142505 -0.18712,-0.316679 0,-0.174173 -0.1684,-0.432135 -0.37422,-0.573248 -0.20583,-0.141113 -0.37423,-0.399075 -0.37423,-0.573249 0,-0.174173 -0.0842,-0.316679 -0.18711,-0.316679 -0.10292,0 -0.18712,0.153513 -0.18712,0.341139 0,0.187627 -0.10525,0.38786 -0.23389,0.444964 -0.18711,0.08306 -0.18711,0.12459 0,0.20765 0.12864,0.0571 0.23389,0.239656 0.23389,0.405672 0,0.166015 0.1684,0.417303 0.37423,0.558416 0.20582,0.141113 0.37423,0.369657 0.37423,0.507875 0,0.261887 0.68853,0.916009 0.9642,0.916009 0.0872,0 0.15848,0.160187 0.15848,0.355971 0,0.195784 0.0842,0.355971 0.18711,0.355971 0.10292,0 0.18712,0.142505 0.18712,0.316679 0,0.174173 0.1684,0.432135 0.37423,0.573248 0.205821,0.141114 0.374221,0.399075 0.374221,0.573249 0,0.174173 0.0842,0.316679 0.18712,0.316679 0.10291,0 0.18711,0.160187 0.18711,0.355971 0,0.416707 0.46598,0.472113 0.85538,0.101706 z m 9.53795,-0.538579 c 0.41993,-0.399445 0.45928,-0.574808 0.45928,-2.046834 0,-0.954649 -0.0762,-1.60996 -0.18712,-1.60996 -0.11129,0 -0.18711,0.669181 -0.18711,1.651571 0,1.44739 -0.0463,1.683289 -0.37423,1.90814 -0.35107,0.240696 -0.50055,0.533956 -0.27216,0.533956 0.0561,0 0.30873,-0.196593 0.56134,-0.436873 z m -18.065001,-0.09708 c 0,-0.09789 -0.0842,-0.177986 -0.18711,-0.177986 -0.10291,0 -0.18712,0.08009 -0.18712,0.177986 0,0.09789 0.0842,0.177985 0.18712,0.177985 0.10291,0 0.18711,-0.08009 0.18711,-0.177985 z m 5.05208,0 c 0,-0.09789 -0.0842,-0.177986 -0.18712,-0.177986 -0.10291,0 -0.18711,0.08009 -0.18711,0.177986 0,0.09789 0.0842,0.177985 0.18711,0.177985 0.10292,0 0.18712,-0.08009 0.18712,-0.177985 z m 5.613411,0 c 0,-0.09789 -0.0842,-0.177986 -0.18711,-0.177986 -0.10291,0 -0.18711,0.08009 -0.18711,0.177986 0,0.09789 0.0842,0.177985 0.18711,0.177985 0.10291,0 0.18711,-0.08009 0.18711,-0.177985 z m -5.987641,-0.711943 c 0,-0.09789 -0.0842,-0.177985 -0.18711,-0.177985 -0.10292,0 -0.18712,0.08009 -0.18712,0.177985 0,0.09789 0.0842,0.177986 0.18712,0.177986 0.10291,0 0.18711,-0.08009 0.18711,-0.177986 z m 9.355691,0 c 0,-0.09789 -0.0842,-0.177985 -0.18711,-0.177985 -0.10291,0 -0.18711,0.08009 -0.18711,0.177985 0,0.09789 0.0842,0.177986 0.18711,0.177986 0.10291,0 0.18711,-0.08009 0.18711,-0.177986 z m -1.74194,-0.80941 c 0.15927,-0.151499 0.23288,-0.32939 0.16358,-0.395313 -0.0693,-0.06592 -0.20563,-0.002 -0.30295,0.141965 -0.15573,0.230441 -0.19815,0.230441 -0.35388,0 -0.0973,-0.144003 -0.23211,-0.209342 -0.29955,-0.145198 -0.10368,0.09862 0.26024,0.646649 0.44308,0.66723 0.0331,0.0037 0.19045,-0.117184 0.34972,-0.268684 z m 5.10999,-0.258503 c 0,-0.09789 -0.0842,-0.177985 -0.18711,-0.177985 -0.10291,0 -0.18711,0.08009 -0.18711,0.177985 0,0.09789 0.0842,0.177986 0.18711,0.177986 0.10291,0 0.18711,-0.08009 0.18711,-0.177986 z M 67.308262,53.945304 c 0.0873,-0.177985 0.13098,-0.177985 0.2183,0 0.13004,0.265073 1.76199,0.306285 1.76199,0.0445 0,-0.09789 0.35785,-0.189986 0.79523,-0.204653 0.62703,-0.02103 0.67818,-0.04311 0.24181,-0.104382 -0.30438,-0.04274 -0.70487,-0.243817 -0.88998,-0.446831 -0.1851,-0.203014 -0.39673,-0.311875 -0.47028,-0.241911 -0.0735,0.06996 -0.0123,0.198589 0.1361,0.285835 0.43973,0.258506 0.11263,0.374571 -1.10177,0.39095 -0.83085,0.01121 -1.14359,0.08154 -1.14359,0.257201 0,0.303369 0.30641,0.316444 0.45219,0.01929 z m 12.458671,-0.48946 c 0,-0.09789 -0.0842,-0.177986 -0.18712,-0.177986 -0.10291,0 -0.18711,0.08009 -0.18711,0.177986 0,0.09789 0.0842,0.177985 0.18711,0.177985 0.10292,0 0.18712,-0.08009 0.18712,-0.177985 z M 66.481842,52.743902 c 0,-0.09789 -0.0842,-0.177986 -0.18711,-0.177986 -0.10292,0 -0.18712,-0.125861 -0.18712,-0.279691 0,-0.328254 0.43975,-0.788222 0.75358,-0.788222 0.23782,0 1.22579,0.941685 1.35863,1.294974 0.0451,0.119847 0.14405,0.163102 0.21997,0.09612 0.13852,-0.122188 -0.007,-0.329136 -0.78849,-1.124598 -0.52352,-0.532594 -0.54483,-0.978441 -0.0468,-0.978441 0.24949,0 0.37423,-0.118657 0.37423,-0.355971 0,-0.237314 -0.12474,-0.355971 -0.37423,-0.355971 -0.24948,0 -0.37422,0.118657 -0.37422,0.355971 0,0.237314 -0.12475,0.355971 -0.37423,0.355971 -0.21547,0 -0.37423,0.118657 -0.37423,0.279692 0,0.15383 -0.1263,0.399832 -0.28067,0.54667 -0.24949,0.237314 -0.31186,0.237314 -0.56134,0 -0.15437,-0.146838 -0.28067,-0.358514 -0.28067,-0.470391 0,-0.294134 -0.55545,-0.778595 -0.71059,-0.619771 -0.0723,0.074 -0.0262,0.170305 0.10247,0.214007 0.12864,0.0437 0.23389,0.23297 0.23389,0.420596 0,0.187627 0.0842,0.341139 0.18711,0.341139 0.10291,0 0.18712,0.123003 0.18712,0.273339 0,0.277658 0.72586,1.119764 0.98234,1.139659 0.0772,0.006 0.14034,-0.06921 0.14034,-0.167099 z m 6.655911,-0.07628 c 0.14702,-0.139845 0.2673,-0.380126 0.2673,-0.533956 0,-0.15383 0.13013,-0.279692 0.28918,-0.279692 0.35221,0 1.2966,-0.864727 1.12385,-1.029049 -0.068,-0.06465 -0.2032,2.67e-4 -0.30052,0.144276 -0.15573,0.230442 -0.19814,0.230442 -0.35388,0 -0.0973,-0.144003 -0.24467,-0.193108 -0.32745,-0.109122 -0.0828,0.08399 -0.0453,0.188458 0.0834,0.23216 0.33089,0.112409 0.29092,0.405764 -0.0553,0.405764 -0.15904,0 -0.49585,0.196593 -0.74845,0.436874 -0.252611,0.24028 -0.459281,0.560654 -0.459281,0.711942 0,0.342442 0.1368,0.348357 0.481151,0.0208 z m 10.37145,-0.279691 c 0,-0.09789 -0.1684,-0.177986 -0.37422,-0.177986 -0.20583,0 -0.37423,0.08009 -0.37423,0.177986 0,0.09789 0.1684,0.177985 0.37423,0.177985 0.20582,0 0.37422,-0.08009 0.37422,-0.177985 z M 68.540092,51.675989 c 0,-0.09789 -0.0842,-0.177986 -0.18711,-0.177986 -0.10291,0 -0.18712,0.08009 -0.18712,0.177986 0,0.09789 0.0842,0.177985 0.18712,0.177985 0.10291,0 0.18711,-0.08009 0.18711,-0.177985 z m 9.110671,-0.09747 c 0.15927,-0.1515 0.24146,-0.321222 0.18266,-0.37716 -0.10777,-0.10251 -0.68609,0.361864 -0.68609,0.550907 0,0.180076 0.20631,0.108872 0.50343,-0.173747 z m 5.10999,0.09747 c 0,-0.09789 -0.0842,-0.177986 -0.18711,-0.177986 -0.27121,0 -0.23021,-0.667639 0.0468,-0.761735 0.12864,-0.0437 0.17476,-0.140005 0.10247,-0.214007 -0.21754,-0.222714 -0.71059,0.383737 -0.71059,0.874036 0,0.33902 0.097,0.457677 0.37423,0.457677 0.20583,0 0.37423,-0.08009 0.37423,-0.177985 z m -7.11033,-0.355971 c 0,-0.09789 -0.0842,-0.177986 -0.18711,-0.177986 -0.10292,0 -0.18712,0.08009 -0.18712,0.177986 0,0.09789 0.0842,0.177985 0.18712,0.177985 0.10291,0 0.18711,-0.08009 0.18711,-0.177985 z m 3.36805,0 c 0,-0.09789 -0.0842,-0.177986 -0.18711,-0.177986 -0.10292,0 -0.18712,0.08009 -0.18712,0.177986 0,0.09789 0.0842,0.177985 0.18712,0.177985 0.10291,0 0.18711,-0.08009 0.18711,-0.177985 z m 5.23919,0 c 0,-0.09789 -0.0842,-0.177986 -0.18711,-0.177986 -0.10292,0 -0.18712,0.08009 -0.18712,0.177986 0,0.09789 0.0842,0.177985 0.18712,0.177985 0.10291,0 0.18711,-0.08009 0.18711,-0.177985 z M 66.107612,50.43009 c 0,-0.21062 -0.12474,-0.355971 -0.3055,-0.355971 -0.16803,0 -0.45954,-0.168942 -0.64781,-0.375428 -0.31868,-0.349518 -0.3637,-0.355075 -0.65234,-0.08052 -0.17052,0.162201 -0.25334,0.348847 -0.18403,0.41477 0.0693,0.06592 0.19993,0.0061 0.29028,-0.132984 0.13121,-0.201939 0.27043,-0.139587 0.69151,0.309696 0.61676,0.658079 0.80789,0.710229 0.80789,0.220434 z m 17.775821,0.254265 c 0,-0.05594 -0.13031,-0.22566 -0.28958,-0.377159 -0.36537,-0.347547 -0.58488,-0.17345 -0.24386,0.193408 0.25556,0.274915 0.53344,0.370637 0.53344,0.183751 z m -14.113731,-0.50853 c 0.14702,-0.139845 0.2673,-0.380126 0.2673,-0.533956 0,-0.153831 0.0842,-0.279692 0.18712,-0.279692 0.10291,0 0.18711,-0.160187 0.18711,-0.355971 0,-0.195784 0.0842,-0.355971 0.18712,-0.355971 0.10291,0 0.18711,-0.142505 0.18711,-0.316679 0,-0.174173 0.1684,-0.432135 0.37423,-0.573248 0.44902,-0.307846 0.48297,-0.533957 0.0802,-0.533957 -0.34263,0 -0.82865,0.417572 -0.82865,0.711942 0,0.111877 -0.1263,0.323552 -0.28067,0.47039 -0.24948,0.237314 -0.31186,0.237314 -0.56134,0 -0.15437,-0.146838 -0.28067,-0.355462 -0.28067,-0.463609 0,-0.248604 -1.23164,-1.430665 -1.49068,-1.430665 -0.10634,0 -0.19335,0.160187 -0.19335,0.355971 0,0.195784 0.0768,0.355971 0.17067,0.355971 0.0939,0 0.22757,0.320374 0.29712,0.711942 0.0696,0.391568 0.20325,0.711942 0.29712,0.711942 0.0939,0 0.17066,0.160187 0.17066,0.355971 0,0.195784 0.0842,0.355971 0.18712,0.355971 0.10291,0 0.18711,0.123521 0.18711,0.274491 0,0.238342 0.3549,0.767176 0.52793,0.786652 0.0331,0.0037 0.18043,-0.107649 0.32745,-0.247495 z m -5.4263,-1.067913 c 0.3626,-0.344913 0.33625,-0.457677 -0.10693,-0.457677 -0.24948,0 -0.37423,0.118657 -0.37423,0.355971 0,0.421561 0.11855,0.44662 0.48116,0.101706 z m 9.810111,-0.279691 c 0,-0.09789 -0.0842,-0.177986 -0.18711,-0.177986 -0.10292,0 -0.18712,0.08009 -0.18712,0.177986 0,0.09789 0.0842,0.177985 0.18712,0.177985 0.10291,0 0.18711,-0.08009 0.18711,-0.177985 z m -9.917041,-1.168462 c 0,-0.527173 0.15826,-0.781133 0.93557,-1.501321 0.51457,-0.476749 0.93557,-0.985482 0.93557,-1.130518 0,-0.145036 0.10525,-0.299458 0.23389,-0.343159 0.12864,-0.0437 0.16617,-0.148174 0.0834,-0.23216 -0.0828,-0.08399 -0.23655,-0.03488 -0.3417,0.109122 -0.14467,0.198128 -0.21427,0.207699 -0.28609,0.03934 -0.14873,-0.348662 -0.43794,-0.260507 -0.43794,0.133489 0,0.204953 -0.12475,0.355971 -0.29404,0.355971 -0.44169,0 -0.82865,0.45119 -0.82865,0.966207 0,0.251723 -0.0842,0.457677 -0.18711,0.457677 -0.10291,0 -0.18712,0.400468 -0.18712,0.889928 0,0.48946 0.0842,0.889927 0.18712,0.889927 0.10291,0 0.18711,-0.285527 0.18711,-0.634505 z m 9.168581,0.542216 c 0,-0.178587 -2.461401,-2.431328 -2.557081,-2.340313 -0.0533,0.05069 0.43711,0.612655 1.08977,1.248822 1.08418,1.056796 1.467311,1.341795 1.467311,1.091491 z m -2.993821,-2.496591 c 0,-0.280366 -0.98094,-0.97083 -1.37925,-0.97083 -0.25339,0 -0.49829,-0.100117 -0.54423,-0.222482 -0.0459,-0.122365 -0.14719,-0.166226 -0.22499,-0.09747 -0.23413,0.206932 0.40342,0.675921 0.91887,0.675921 0.3564,0 0.48115,0.09229 0.48115,0.355971 0,0.237314 0.12474,0.355971 0.37422,0.355971 0.20583,0 0.37423,-0.04369 0.37423,-0.09708 z m -2.43248,-1.148815 c 0,-0.09789 -0.1684,-0.177986 -0.37423,-0.177986 -0.20582,0 -0.37422,0.08009 -0.37422,0.177986 0,0.09789 0.1684,0.177985 0.37422,0.177985 0.20583,0 0.37423,-0.08009 0.37423,-0.177985 z"
         style="fill:#ff6600;stroke-width:0.18249264" />
    </g>
  </g>
</svg>
